M48
;Layer_Color=9474304
;FILE_FORMAT=4:2
METRIC,LZ
;TYPE=PLATED
T1F00S00C0.30
T2F00S00C0.80
%
T01
X00058Y00027
Y00035
X0006Y0007
X00071Y00073
X00076Y000622
X00084Y00057
X00095Y00027
X00103Y00034
X00089Y0001
X00137Y00019
X00156Y00008
X00174Y00016
X00194
Y000082
X00199Y00035
X00206
X002188Y000333
X00235Y00044
X00247Y00063
X00239Y0008
X00226Y00077
Y00093
X00198Y00084
X00205Y00076
X00208Y00066
X00189Y00067
X00181Y00072
X00176Y00053
X0017Y00047
Y00059
X00142Y0006
X00134Y00052
X0015Y0004
X001958Y00044
X00228Y00008
X00126Y00074
Y00086
X0012Y0008
X00132
X00098Y00084
X00095Y00091
X00039Y00085
X00036Y00094
X00029Y00107
X00047Y0011
X00046Y00126
X0007Y001265
X00067Y00109
X00081Y0011
X00104
X00106Y00096
X00118Y00126
X00133Y00119
X00142Y00127
X00151Y00125
X00162Y0012
X00171Y00117
X00174Y00097
X00212Y00095
X00239Y00101
X00245Y00125
X00234Y00126
X00094Y00127
T02
X00018Y00012
Y00031
Y00052
Y00072
X00272Y00062
Y00084
Y00032
Y00012
Y00124
X00018
M30
