G04 Layer_Color=128*
%FSLAX42Y42*%
%MOMM*%
G71*
G01*
G75*
%ADD24C,0.30*%
%ADD26C,0.20*%
%ADD27C,0.10*%
%ADD68C,0.05*%
G54D24*
X-200Y2850D02*
X-247D01*
X-270Y2827D01*
Y2733D01*
X-247Y2710D01*
X-200D01*
X-177Y2733D01*
Y2827D01*
X-200Y2850D01*
X-130Y2803D02*
Y2733D01*
X-107Y2710D01*
X-37D01*
Y2803D01*
X33Y2827D02*
Y2803D01*
X10D01*
X57D01*
X33D01*
Y2733D01*
X57Y2710D01*
X127D02*
X173D01*
X150D01*
Y2850D01*
X127D01*
X243Y2710D02*
X290D01*
X266D01*
Y2803D01*
X243D01*
X360Y2710D02*
Y2803D01*
X430D01*
X453Y2780D01*
Y2710D01*
X570D02*
X523D01*
X500Y2733D01*
Y2780D01*
X523Y2803D01*
X570D01*
X593Y2780D01*
Y2757D01*
X500D01*
X780Y2710D02*
Y2850D01*
X826Y2803D01*
X873Y2850D01*
Y2710D01*
X1013Y2850D02*
X920D01*
Y2710D01*
X1013D01*
X920Y2780D02*
X966D01*
X1153Y2827D02*
X1130Y2850D01*
X1083D01*
X1060Y2827D01*
Y2733D01*
X1083Y2710D01*
X1130D01*
X1153Y2733D01*
X1200Y2850D02*
Y2710D01*
Y2780D01*
X1293D01*
Y2850D01*
Y2710D01*
X1573Y2850D02*
X1479D01*
Y2780D01*
X1526Y2803D01*
X1549D01*
X1573Y2780D01*
Y2733D01*
X1549Y2710D01*
X1503D01*
X1479Y2733D01*
G54D26*
X-270Y3010D02*
Y2910D01*
Y2960D01*
X-203D01*
Y3010D01*
Y2910D01*
X-170D02*
X-137D01*
X-153D01*
Y3010D01*
X-170Y2993D01*
X-87D02*
X-70Y3010D01*
X-37D01*
X-20Y2993D01*
Y2977D01*
X-37Y2960D01*
X-20Y2943D01*
Y2927D01*
X-37Y2910D01*
X-70D01*
X-87Y2927D01*
Y2943D01*
X-70Y2960D01*
X-87Y2977D01*
Y2993D01*
X-70Y2960D02*
X-37D01*
X13D02*
X80D01*
X113Y2993D02*
X130Y3010D01*
X163D01*
X180Y2993D01*
Y2927D01*
X163Y2910D01*
X130D01*
X113Y2927D01*
Y2993D01*
X213D02*
X230Y3010D01*
X263D01*
X280Y2993D01*
Y2927D01*
X263Y2910D01*
X230D01*
X213Y2927D01*
Y2993D01*
X380Y2910D02*
X313D01*
X380Y2977D01*
Y2993D01*
X363Y3010D01*
X330D01*
X313Y2993D01*
X413Y2910D02*
Y2927D01*
X430D01*
Y2910D01*
X413D01*
X496D02*
Y3010D01*
X546D01*
X563Y2993D01*
Y2960D01*
X546Y2943D01*
X496D01*
X663Y2993D02*
X646Y3010D01*
X613D01*
X596Y2993D01*
Y2927D01*
X613Y2910D01*
X646D01*
X663Y2927D01*
X696Y3010D02*
Y2910D01*
X746D01*
X763Y2927D01*
Y2943D01*
X746Y2960D01*
X696D01*
X746D01*
X763Y2977D01*
Y2993D01*
X746Y3010D01*
X696D01*
X796D02*
Y2910D01*
X846D01*
X863Y2927D01*
Y2993D01*
X846Y3010D01*
X796D01*
X946D02*
X913D01*
X896Y2993D01*
Y2927D01*
X913Y2910D01*
X946D01*
X963Y2927D01*
Y2993D01*
X946Y3010D01*
X1063Y2993D02*
X1046Y3010D01*
X1013D01*
X996Y2993D01*
Y2927D01*
X1013Y2910D01*
X1046D01*
X1063Y2927D01*
G54D27*
X-390Y2100D02*
Y2400D01*
X3300D01*
Y-1000D02*
Y2400D01*
X-390Y-1000D02*
Y2100D01*
Y-1000D02*
X610D01*
X3300D01*
G54D68*
X2895Y630D02*
X2945D01*
X2920Y605D02*
Y655D01*
X2895Y730D02*
X2945D01*
X2920Y705D02*
Y755D01*
X2895Y530D02*
X2945D01*
X2920Y505D02*
Y555D01*
X2895Y430D02*
X2945D01*
X2920Y405D02*
Y455D01*
X2895Y330D02*
X2945D01*
X2920Y305D02*
Y355D01*
X2680Y1240D02*
X2760D01*
X2720Y1200D02*
Y1280D01*
X140Y520D02*
X220D01*
X180Y480D02*
Y560D01*
X140Y1240D02*
X220D01*
X180Y1200D02*
Y1280D01*
X140Y720D02*
X220D01*
X180Y680D02*
Y760D01*
X2680Y620D02*
X2760D01*
X2720Y580D02*
Y660D01*
X2680Y120D02*
X2760D01*
X2720Y80D02*
Y160D01*
X140Y310D02*
X220D01*
X180Y270D02*
Y350D01*
X2680Y320D02*
X2760D01*
X2720Y280D02*
Y360D01*
X2680Y840D02*
X2760D01*
X2720Y800D02*
Y880D01*
X140Y120D02*
X220D01*
X180Y80D02*
Y160D01*
X-45Y640D02*
X5D01*
X-20Y615D02*
Y665D01*
X-45Y740D02*
X5D01*
X-20Y715D02*
Y765D01*
X-45Y540D02*
X5D01*
X-20Y515D02*
Y565D01*
X-45Y440D02*
X5D01*
X-20Y415D02*
Y465D01*
X-45Y340D02*
X5D01*
X-20Y315D02*
Y365D01*
X1350Y2000D02*
X1650D01*
X1500Y1850D02*
Y2150D01*
X1350Y-600D02*
X1650D01*
X1500Y-750D02*
Y-450D01*
X1165Y1260D02*
X1195D01*
X1180Y1245D02*
Y1275D01*
X795Y1100D02*
X825D01*
X810Y1085D02*
Y1115D01*
X745Y622D02*
X775D01*
X760Y607D02*
Y638D01*
X2173Y333D02*
X2202D01*
X2188Y317D02*
Y347D01*
X1942Y440D02*
X1973D01*
X1958Y425D02*
Y455D01*
X585Y700D02*
X615D01*
X600Y685D02*
Y715D01*
X565Y350D02*
X595D01*
X580Y335D02*
Y365D01*
X875Y100D02*
X905D01*
X890Y85D02*
Y115D01*
X1745Y530D02*
X1775D01*
X1760Y515D02*
Y545D01*
X1685Y590D02*
X1715D01*
X1700Y575D02*
Y605D01*
X1685Y470D02*
X1715D01*
X1700Y455D02*
Y485D01*
X565Y270D02*
X595D01*
X580Y255D02*
Y285D01*
X1015Y340D02*
X1045D01*
X1030Y325D02*
Y355D01*
X695Y730D02*
X725D01*
X710Y715D02*
Y745D01*
X1355Y190D02*
X1385D01*
X1370Y175D02*
Y205D01*
X1485Y400D02*
X1515D01*
X1500Y385D02*
Y415D01*
X1795Y720D02*
X1825D01*
X1810Y705D02*
Y735D01*
X2435Y1250D02*
X2465D01*
X2450Y1235D02*
Y1265D01*
X1925Y82D02*
X1955D01*
X1940Y68D02*
Y98D01*
X445Y1260D02*
X475D01*
X460Y1245D02*
Y1275D01*
X685Y1265D02*
X715D01*
X700Y1250D02*
Y1280D01*
X925Y1270D02*
X955D01*
X940Y1255D02*
Y1285D01*
X1405Y1270D02*
X1435D01*
X1420Y1255D02*
Y1285D01*
X2035Y760D02*
X2065D01*
X2050Y745D02*
Y775D01*
X1965Y840D02*
X1995D01*
X1980Y825D02*
Y855D01*
X2325Y1260D02*
X2355D01*
X2340Y1245D02*
Y1275D01*
X345Y940D02*
X375D01*
X360Y925D02*
Y955D01*
X965Y840D02*
X995D01*
X980Y825D02*
Y855D01*
X1245Y860D02*
X1275D01*
X1260Y845D02*
Y875D01*
X1245Y740D02*
X1275D01*
X1260Y725D02*
Y755D01*
X1185Y800D02*
X1215D01*
X1200Y785D02*
Y815D01*
X1305Y800D02*
X1335D01*
X1320Y785D02*
Y815D01*
X1325Y520D02*
X1355D01*
X1340Y505D02*
Y535D01*
X1405Y600D02*
X1435D01*
X1420Y585D02*
Y615D01*
X825Y570D02*
X855D01*
X840Y555D02*
Y585D01*
X1315Y1190D02*
X1345D01*
X1330Y1175D02*
Y1205D01*
X1605Y1200D02*
X1635D01*
X1620Y1185D02*
Y1215D01*
X1045Y960D02*
X1075D01*
X1060Y945D02*
Y975D01*
X1725Y160D02*
X1755D01*
X1740Y145D02*
Y175D01*
X275Y1070D02*
X305D01*
X290Y1055D02*
Y1085D01*
X935Y910D02*
X965D01*
X950Y895D02*
Y925D01*
X1495Y1250D02*
X1525D01*
X1510Y1235D02*
Y1265D01*
X1025Y1100D02*
X1055D01*
X1040Y1085D02*
Y1115D01*
X1545Y80D02*
X1575D01*
X1560Y65D02*
Y95D01*
X2265Y80D02*
X2295D01*
X2280Y65D02*
Y95D01*
X2045Y350D02*
X2075D01*
X2060Y335D02*
Y365D01*
X2065Y660D02*
X2095D01*
X2080Y645D02*
Y675D01*
X1975Y350D02*
X2005D01*
X1990Y335D02*
Y365D01*
X935Y270D02*
X965D01*
X950Y255D02*
Y285D01*
X455Y1100D02*
X485D01*
X470Y1085D02*
Y1115D01*
X1695Y1170D02*
X1725D01*
X1710Y1155D02*
Y1185D01*
X2375Y1010D02*
X2405D01*
X2390Y995D02*
Y1025D01*
X2375Y800D02*
X2405D01*
X2390Y785D02*
Y815D01*
X2335Y440D02*
X2365D01*
X2350Y425D02*
Y455D01*
X2455Y630D02*
X2485D01*
X2470Y615D02*
Y645D01*
X1875Y670D02*
X1905D01*
X1890Y655D02*
Y685D01*
X1725Y970D02*
X1755D01*
X1740Y955D02*
Y985D01*
X655Y1090D02*
X685D01*
X670Y1075D02*
Y1105D01*
X1925Y160D02*
X1955D01*
X1940Y145D02*
Y175D01*
X2105Y950D02*
X2135D01*
X2120Y935D02*
Y965D01*
X2245Y770D02*
X2275D01*
X2260Y755D02*
Y785D01*
X2245Y930D02*
X2275D01*
X2260Y915D02*
Y945D01*
X375Y850D02*
X405D01*
X390Y835D02*
Y865D01*
M02*
