G04 Layer_Physical_Order=2*
G04 Layer_Color=32768*
%FSLAX42Y42*%
%MOMM*%
G71*
G01*
G75*
%ADD24C,0.30*%
%ADD26C,0.20*%
%ADD27C,0.10*%
%ADD32C,1.00*%
%ADD33C,1.02*%
%ADD34C,1.30*%
%ADD35C,1.60*%
G04:AMPARAMS|DCode=36|XSize=2.324mm|YSize=2.324mm|CornerRadius=0mm|HoleSize=0mm|Usage=FLASHONLY|Rotation=0.000|XOffset=0mm|YOffset=0mm|HoleType=Round|Shape=Relief|Width=0.25mm|Gap=0.25mm|Entries=4|*
%AMTHD36*
7,0,0,2.32,1.82,0.25,45*
%
%ADD36THD36*%
%ADD37C,3.80*%
%ADD38C,1.10*%
G54D24*
X-200Y2850D02*
X-247D01*
X-270Y2827D01*
Y2733D01*
X-247Y2710D01*
X-200D01*
X-177Y2733D01*
Y2827D01*
X-200Y2850D01*
X-130Y2803D02*
Y2733D01*
X-107Y2710D01*
X-37D01*
Y2803D01*
X33Y2827D02*
Y2803D01*
X10D01*
X57D01*
X33D01*
Y2733D01*
X57Y2710D01*
X127D02*
X173D01*
X150D01*
Y2850D01*
X127D01*
X243Y2710D02*
X290D01*
X266D01*
Y2803D01*
X243D01*
X360Y2710D02*
Y2803D01*
X430D01*
X453Y2780D01*
Y2710D01*
X570D02*
X523D01*
X500Y2733D01*
Y2780D01*
X523Y2803D01*
X570D01*
X593Y2780D01*
Y2757D01*
X500D01*
X780Y2710D02*
Y2850D01*
X826Y2803D01*
X873Y2850D01*
Y2710D01*
X1013Y2850D02*
X920D01*
Y2710D01*
X1013D01*
X920Y2780D02*
X966D01*
X1153Y2827D02*
X1130Y2850D01*
X1083D01*
X1060Y2827D01*
Y2733D01*
X1083Y2710D01*
X1130D01*
X1153Y2733D01*
X1200Y2850D02*
Y2710D01*
Y2780D01*
X1293D01*
Y2850D01*
Y2710D01*
X1573Y2850D02*
X1479D01*
Y2780D01*
X1526Y2803D01*
X1549D01*
X1573Y2780D01*
Y2733D01*
X1549Y2710D01*
X1503D01*
X1479Y2733D01*
G54D26*
X3550Y1780D02*
Y1880D01*
X3600D01*
X3617Y1863D01*
Y1830D01*
X3600Y1813D01*
X3550D01*
X3650Y1880D02*
Y1780D01*
X3717D01*
X3750D02*
Y1847D01*
X3783Y1880D01*
X3817Y1847D01*
Y1780D01*
Y1830D01*
X3750D01*
X3850Y1780D02*
Y1880D01*
X3917Y1780D01*
Y1880D01*
X4017D02*
X3950D01*
Y1780D01*
X4017D01*
X3950Y1830D02*
X3983D01*
X4150Y1780D02*
X4183D01*
X4166D01*
Y1880D01*
X4150Y1863D01*
X-300Y2060D02*
Y2160D01*
X-250D01*
X-233Y2143D01*
Y2110D01*
X-250Y2093D01*
X-300D01*
X-200Y2160D02*
Y2060D01*
X-133D01*
X-100D02*
Y2127D01*
X-67Y2160D01*
X-33Y2127D01*
Y2060D01*
Y2110D01*
X-100D01*
X-0Y2060D02*
Y2160D01*
X67Y2060D01*
Y2160D01*
X167D02*
X100D01*
Y2060D01*
X167D01*
X100Y2110D02*
X133D01*
X200Y2060D02*
X233D01*
X216D01*
Y2160D01*
X200Y2143D01*
X450D02*
X433Y2160D01*
X400D01*
X383Y2143D01*
Y2077D01*
X400Y2060D01*
X433D01*
X450Y2077D01*
Y2110D01*
X416D01*
X483Y2060D02*
Y2160D01*
X550Y2060D01*
Y2160D01*
X583D02*
Y2060D01*
X633D01*
X650Y2077D01*
Y2143D01*
X633Y2160D01*
X583D01*
X-270Y3010D02*
Y2910D01*
Y2960D01*
X-203D01*
Y3010D01*
Y2910D01*
X-170D02*
X-137D01*
X-153D01*
Y3010D01*
X-170Y2993D01*
X-87D02*
X-70Y3010D01*
X-37D01*
X-20Y2993D01*
Y2977D01*
X-37Y2960D01*
X-20Y2943D01*
Y2927D01*
X-37Y2910D01*
X-70D01*
X-87Y2927D01*
Y2943D01*
X-70Y2960D01*
X-87Y2977D01*
Y2993D01*
X-70Y2960D02*
X-37D01*
X13D02*
X80D01*
X113Y2993D02*
X130Y3010D01*
X163D01*
X180Y2993D01*
Y2927D01*
X163Y2910D01*
X130D01*
X113Y2927D01*
Y2993D01*
X213D02*
X230Y3010D01*
X263D01*
X280Y2993D01*
Y2927D01*
X263Y2910D01*
X230D01*
X213Y2927D01*
Y2993D01*
X380Y2910D02*
X313D01*
X380Y2977D01*
Y2993D01*
X363Y3010D01*
X330D01*
X313Y2993D01*
X413Y2910D02*
Y2927D01*
X430D01*
Y2910D01*
X413D01*
X496D02*
Y3010D01*
X546D01*
X563Y2993D01*
Y2960D01*
X546Y2943D01*
X496D01*
X663Y2993D02*
X646Y3010D01*
X613D01*
X596Y2993D01*
Y2927D01*
X613Y2910D01*
X646D01*
X663Y2927D01*
X696Y3010D02*
Y2910D01*
X746D01*
X763Y2927D01*
Y2943D01*
X746Y2960D01*
X696D01*
X746D01*
X763Y2977D01*
Y2993D01*
X746Y3010D01*
X696D01*
X796D02*
Y2910D01*
X846D01*
X863Y2927D01*
Y2993D01*
X846Y3010D01*
X796D01*
X946D02*
X913D01*
X896Y2993D01*
Y2927D01*
X913Y2910D01*
X946D01*
X963Y2927D01*
Y2993D01*
X946Y3010D01*
X1063Y2993D02*
X1046Y3010D01*
X1013D01*
X996Y2993D01*
Y2927D01*
X1013Y2910D01*
X1046D01*
X1063Y2927D01*
G54D27*
X-390Y2100D02*
Y2400D01*
X3300D01*
Y-1000D02*
Y2400D01*
X-390Y-1000D02*
Y2100D01*
Y-1000D02*
X610D01*
X3300D01*
G54D32*
X0Y0D02*
Y1180D01*
Y1340D01*
X20Y1360D01*
X2430D01*
X2890D01*
X2900Y1350D01*
Y1000D02*
Y1350D01*
Y220D02*
Y1000D01*
Y0D02*
Y220D01*
X0Y0D02*
X2900D01*
G54D33*
X-390Y-1000D02*
Y2400D01*
X3300D01*
Y-1000D02*
Y2400D01*
X-390Y-1000D02*
X3300D01*
G54D34*
X2920Y630D02*
D03*
Y730D02*
D03*
Y530D02*
D03*
Y430D02*
D03*
Y330D02*
D03*
X-20Y640D02*
D03*
Y740D02*
D03*
Y540D02*
D03*
Y440D02*
D03*
Y340D02*
D03*
G54D35*
X2720Y1240D02*
D03*
X180Y520D02*
D03*
Y1240D02*
D03*
X2720Y320D02*
D03*
Y840D02*
D03*
X180Y120D02*
D03*
G54D36*
Y720D02*
D03*
X2720Y620D02*
D03*
Y120D02*
D03*
X180Y310D02*
D03*
G54D37*
X1500Y2000D02*
D03*
Y-600D02*
D03*
G54D38*
X1180Y1260D02*
D03*
X810Y1100D02*
D03*
X760Y622D02*
D03*
X2188Y333D02*
D03*
X1958Y440D02*
D03*
X580Y350D02*
D03*
X1760Y530D02*
D03*
X710Y730D02*
D03*
X1500Y400D02*
D03*
X1810Y720D02*
D03*
X2450Y1250D02*
D03*
X1940Y82D02*
D03*
X2050Y760D02*
D03*
X950Y270D02*
D03*
X1710Y1170D02*
D03*
X2390Y1010D02*
D03*
Y800D02*
D03*
X2350Y440D02*
D03*
X2470Y630D02*
D03*
X1890Y670D02*
D03*
X1740Y970D02*
D03*
X2120Y950D02*
D03*
X2260Y770D02*
D03*
Y930D02*
D03*
M02*
