G04 Layer_Physical_Order=3*
G04 Layer_Color=36540*
%FSLAX42Y42*%
%MOMM*%
G71*
G01*
G75*
%ADD24C,0.30*%
%ADD25C,0.20*%
%ADD26C,0.25*%
%ADD27C,0.10*%
%ADD29C,0.50*%
%ADD31C,0.60*%
G36*
X3300Y-1000D02*
X-390D01*
Y2400D01*
X3300D01*
Y-1000D01*
D02*
G37*
%LPC*%
G36*
X1500Y-409D02*
X1463Y-413D01*
X1427Y-424D01*
X1394Y-441D01*
X1365Y-465D01*
X1341Y-494D01*
X1324Y-527D01*
X1313Y-563D01*
X1309Y-600D01*
X1313Y-637D01*
X1324Y-673D01*
X1341Y-706D01*
X1365Y-735D01*
X1394Y-759D01*
X1427Y-776D01*
X1463Y-787D01*
X1500Y-791D01*
X1537Y-787D01*
X1573Y-776D01*
X1606Y-759D01*
X1635Y-735D01*
X1659Y-706D01*
X1676Y-673D01*
X1687Y-637D01*
X1691Y-600D01*
X1687Y-563D01*
X1676Y-527D01*
X1659Y-494D01*
X1635Y-465D01*
X1606Y-441D01*
X1573Y-424D01*
X1537Y-413D01*
X1500Y-409D01*
D02*
G37*
G36*
X2900Y1441D02*
X0D01*
X-21Y1438D01*
X-40Y1430D01*
X-57Y1417D01*
X-70Y1400D01*
X-78Y1381D01*
X-81Y1360D01*
Y0D01*
X-78Y-21D01*
X-70Y-40D01*
X-57Y-57D01*
X-40Y-70D01*
X-21Y-78D01*
X0Y-81D01*
X21Y-78D01*
X39Y-71D01*
X2861D01*
X2879Y-78D01*
X2900Y-81D01*
X2921Y-78D01*
X2940Y-70D01*
X2957Y-57D01*
X2970Y-40D01*
X2978Y-21D01*
X2981Y0D01*
Y1360D01*
X2978Y1381D01*
X2970Y1400D01*
X2957Y1417D01*
X2940Y1430D01*
X2921Y1438D01*
X2900Y1441D01*
D02*
G37*
G36*
X436Y2060D02*
X-350D01*
Y1840D01*
X436D01*
Y2060D01*
D02*
G37*
G36*
X1500Y2191D02*
X1463Y2187D01*
X1427Y2176D01*
X1394Y2159D01*
X1365Y2135D01*
X1341Y2106D01*
X1324Y2073D01*
X1313Y2037D01*
X1309Y2000D01*
X1313Y1963D01*
X1324Y1927D01*
X1341Y1894D01*
X1365Y1865D01*
X1394Y1841D01*
X1427Y1824D01*
X1463Y1813D01*
X1500Y1809D01*
X1537Y1813D01*
X1573Y1824D01*
X1606Y1841D01*
X1635Y1865D01*
X1659Y1894D01*
X1676Y1927D01*
X1687Y1963D01*
X1691Y2000D01*
X1687Y2037D01*
X1676Y2073D01*
X1659Y2106D01*
X1635Y2135D01*
X1606Y2159D01*
X1573Y2176D01*
X1537Y2187D01*
X1500Y2191D01*
D02*
G37*
%LPD*%
G36*
X2819Y71D02*
X2781D01*
X2774Y83D01*
X2777Y87D01*
X2784Y103D01*
X2784Y107D01*
X2656D01*
X2656Y103D01*
X2663Y87D01*
X2666Y83D01*
X2659Y71D01*
X2019D01*
X2010Y80D01*
X2011Y82D01*
X2008Y101D01*
X2001Y118D01*
X1990Y132D01*
X1975Y144D01*
X1958Y151D01*
X1940Y153D01*
X1922Y151D01*
X1905Y144D01*
X1890Y132D01*
X1879Y118D01*
X1872Y101D01*
X1869Y82D01*
X1870Y80D01*
X1861Y71D01*
X257D01*
X251Y83D01*
X258Y99D01*
X261Y120D01*
X258Y141D01*
X250Y160D01*
X237Y177D01*
X220Y190D01*
X201Y198D01*
X180Y201D01*
X159Y198D01*
X140Y190D01*
X123Y177D01*
X110Y160D01*
X102Y141D01*
X99Y120D01*
X102Y99D01*
X109Y83D01*
X103Y71D01*
X81D01*
Y1279D01*
X98D01*
X105Y1269D01*
X102Y1261D01*
X99Y1240D01*
X102Y1219D01*
X110Y1200D01*
X123Y1183D01*
X140Y1170D01*
X159Y1162D01*
X180Y1159D01*
X201Y1162D01*
X220Y1170D01*
X237Y1183D01*
X250Y1200D01*
X258Y1219D01*
X261Y1240D01*
X258Y1261D01*
X255Y1269D01*
X262Y1279D01*
X1099D01*
X1110Y1267D01*
X1109Y1260D01*
X1112Y1242D01*
X1119Y1225D01*
X1130Y1210D01*
X1145Y1199D01*
X1162Y1192D01*
X1180Y1189D01*
X1198Y1192D01*
X1215Y1199D01*
X1230Y1210D01*
X1241Y1225D01*
X1248Y1242D01*
X1251Y1260D01*
X1250Y1267D01*
X1261Y1279D01*
X2375D01*
X2380Y1272D01*
X2382Y1267D01*
X2379Y1250D01*
X2382Y1232D01*
X2389Y1215D01*
X2400Y1200D01*
X2415Y1189D01*
X2432Y1182D01*
X2450Y1179D01*
X2468Y1182D01*
X2485Y1189D01*
X2500Y1200D01*
X2511Y1215D01*
X2518Y1232D01*
X2521Y1250D01*
X2518Y1267D01*
X2520Y1272D01*
X2525Y1279D01*
X2638D01*
X2645Y1269D01*
X2642Y1261D01*
X2639Y1240D01*
X2642Y1219D01*
X2650Y1200D01*
X2663Y1183D01*
X2680Y1170D01*
X2699Y1162D01*
X2720Y1159D01*
X2741Y1162D01*
X2760Y1170D01*
X2777Y1183D01*
X2790Y1200D01*
X2798Y1219D01*
X2801Y1240D01*
X2798Y1261D01*
X2795Y1269D01*
X2802Y1279D01*
X2819D01*
Y71D01*
D02*
G37*
%LPC*%
G36*
X193Y374D02*
Y323D01*
X244D01*
X244Y327D01*
X237Y343D01*
X227Y357D01*
X213Y367D01*
X197Y374D01*
X193Y374D01*
D02*
G37*
G36*
X167D02*
X163Y374D01*
X147Y367D01*
X133Y357D01*
X123Y343D01*
X116Y327D01*
X116Y323D01*
X167D01*
Y374D01*
D02*
G37*
G36*
X180Y601D02*
X159Y598D01*
X140Y590D01*
X123Y577D01*
X110Y560D01*
X102Y541D01*
X99Y520D01*
X102Y499D01*
X110Y480D01*
X123Y463D01*
X140Y450D01*
X159Y442D01*
X180Y439D01*
X201Y442D01*
X220Y450D01*
X237Y463D01*
X250Y480D01*
X258Y499D01*
X261Y520D01*
X258Y541D01*
X250Y560D01*
X237Y577D01*
X220Y590D01*
X201Y598D01*
X180Y601D01*
D02*
G37*
G36*
X2784Y607D02*
X2733D01*
Y556D01*
X2737Y556D01*
X2753Y563D01*
X2767Y573D01*
X2777Y587D01*
X2784Y603D01*
X2784Y607D01*
D02*
G37*
G36*
X2707D02*
X2656D01*
X2656Y603D01*
X2663Y587D01*
X2673Y573D01*
X2687Y563D01*
X2703Y556D01*
X2707Y556D01*
Y607D01*
D02*
G37*
G36*
X580Y421D02*
X562Y418D01*
X545Y411D01*
X530Y400D01*
X519Y385D01*
X512Y368D01*
X509Y350D01*
X512Y332D01*
X519Y315D01*
X530Y300D01*
X545Y289D01*
X562Y282D01*
X580Y279D01*
X598Y282D01*
X615Y289D01*
X630Y300D01*
X641Y315D01*
X648Y332D01*
X651Y350D01*
X648Y368D01*
X641Y385D01*
X630Y400D01*
X615Y411D01*
X598Y418D01*
X580Y421D01*
D02*
G37*
G36*
X2733Y184D02*
Y133D01*
X2784D01*
X2784Y137D01*
X2777Y153D01*
X2767Y167D01*
X2753Y177D01*
X2737Y184D01*
X2733Y184D01*
D02*
G37*
G36*
X2707D02*
X2703Y184D01*
X2687Y177D01*
X2673Y167D01*
X2663Y153D01*
X2656Y137D01*
X2656Y133D01*
X2707D01*
Y184D01*
D02*
G37*
G36*
X2720Y401D02*
X2699Y398D01*
X2680Y390D01*
X2663Y377D01*
X2650Y360D01*
X2642Y341D01*
X2639Y320D01*
X2642Y299D01*
X2650Y280D01*
X2663Y263D01*
X2680Y250D01*
X2699Y242D01*
X2720Y239D01*
X2741Y242D01*
X2760Y250D01*
X2777Y263D01*
X2790Y280D01*
X2798Y299D01*
X2801Y320D01*
X2798Y341D01*
X2790Y360D01*
X2777Y377D01*
X2760Y390D01*
X2741Y398D01*
X2720Y401D01*
D02*
G37*
G36*
X244Y297D02*
X193D01*
Y246D01*
X197Y246D01*
X213Y253D01*
X227Y263D01*
X237Y277D01*
X244Y293D01*
X244Y297D01*
D02*
G37*
G36*
X167D02*
X116D01*
X116Y293D01*
X123Y277D01*
X133Y263D01*
X147Y253D01*
X163Y246D01*
X167Y246D01*
Y297D01*
D02*
G37*
G36*
X244Y707D02*
X193D01*
Y656D01*
X197Y656D01*
X213Y663D01*
X227Y673D01*
X237Y687D01*
X244Y703D01*
X244Y707D01*
D02*
G37*
G36*
X167D02*
X116D01*
X116Y703D01*
X123Y687D01*
X133Y673D01*
X147Y663D01*
X163Y656D01*
X167Y656D01*
Y707D01*
D02*
G37*
G36*
X810Y1171D02*
X792Y1168D01*
X775Y1161D01*
X760Y1150D01*
X749Y1135D01*
X742Y1118D01*
X739Y1100D01*
X742Y1082D01*
X749Y1065D01*
X754Y1059D01*
X754Y1058D01*
X759Y1049D01*
Y795D01*
X748Y789D01*
X745Y791D01*
X728Y798D01*
X710Y801D01*
X692Y798D01*
X675Y791D01*
X660Y780D01*
X649Y765D01*
X642Y748D01*
X639Y730D01*
X642Y712D01*
X649Y695D01*
X660Y680D01*
X675Y669D01*
X688Y663D01*
X692Y661D01*
X695Y649D01*
X692Y641D01*
X689Y622D01*
X692Y604D01*
X699Y587D01*
X710Y573D01*
X725Y561D01*
X742Y554D01*
X760Y552D01*
X778Y554D01*
X795Y561D01*
X810Y573D01*
X821Y587D01*
X824Y595D01*
X826Y597D01*
X832Y610D01*
X846Y624D01*
X857Y640D01*
X861Y660D01*
Y965D01*
X874Y967D01*
X879Y955D01*
X890Y940D01*
X905Y929D01*
X922Y922D01*
X940Y919D01*
X958Y922D01*
X975Y929D01*
X990Y940D01*
X1001Y955D01*
X1008Y972D01*
X1011Y990D01*
X1008Y1008D01*
X1001Y1025D01*
X990Y1040D01*
X975Y1051D01*
X958Y1058D01*
X940Y1061D01*
X922Y1058D01*
X905Y1051D01*
X890Y1040D01*
X879Y1025D01*
X874Y1013D01*
X861Y1015D01*
Y1049D01*
X866Y1058D01*
X866Y1059D01*
X871Y1065D01*
X878Y1082D01*
X881Y1100D01*
X878Y1118D01*
X871Y1135D01*
X860Y1150D01*
X845Y1161D01*
X828Y1168D01*
X810Y1171D01*
D02*
G37*
G36*
X2720Y921D02*
X2699Y918D01*
X2680Y910D01*
X2663Y897D01*
X2650Y880D01*
X2642Y861D01*
X2639Y840D01*
X2642Y819D01*
X2650Y800D01*
X2663Y783D01*
X2680Y770D01*
X2699Y762D01*
X2720Y759D01*
X2741Y762D01*
X2760Y770D01*
X2777Y783D01*
X2790Y800D01*
X2798Y819D01*
X2801Y840D01*
X2798Y861D01*
X2790Y880D01*
X2777Y897D01*
X2760Y910D01*
X2741Y918D01*
X2720Y921D01*
D02*
G37*
G36*
X193Y784D02*
Y733D01*
X244D01*
X244Y737D01*
X237Y753D01*
X227Y767D01*
X213Y777D01*
X197Y784D01*
X193Y784D01*
D02*
G37*
G36*
X167D02*
X163Y784D01*
X147Y777D01*
X133Y767D01*
X123Y753D01*
X116Y737D01*
X116Y733D01*
X167D01*
Y784D01*
D02*
G37*
G36*
X2733Y684D02*
Y633D01*
X2784D01*
X2784Y637D01*
X2777Y653D01*
X2767Y667D01*
X2753Y677D01*
X2737Y684D01*
X2733Y684D01*
D02*
G37*
G36*
X2707D02*
X2703Y684D01*
X2687Y677D01*
X2673Y667D01*
X2663Y653D01*
X2656Y637D01*
X2656Y633D01*
X2707D01*
Y684D01*
D02*
G37*
G36*
X2020Y1093D02*
X2002Y1091D01*
X1985Y1084D01*
X1970Y1072D01*
X1959Y1058D01*
X1952Y1041D01*
X1949Y1023D01*
X1952Y1004D01*
X1959Y987D01*
X1970Y973D01*
X1985Y961D01*
X2002Y954D01*
X2020Y952D01*
X2037Y954D01*
X2039Y954D01*
X2050Y945D01*
X2052Y932D01*
X2059Y915D01*
X2070Y900D01*
X2085Y889D01*
X2102Y882D01*
X2120Y879D01*
X2138Y882D01*
X2155Y889D01*
X2170Y900D01*
X2179Y912D01*
X2187Y912D01*
X2188Y912D01*
X2193Y910D01*
X2199Y895D01*
X2210Y880D01*
X2225Y869D01*
X2242Y862D01*
X2260Y859D01*
X2278Y862D01*
X2295Y869D01*
X2310Y880D01*
X2321Y895D01*
X2328Y912D01*
X2331Y930D01*
X2328Y948D01*
X2323Y961D01*
X2322Y962D01*
X2334Y969D01*
X2334Y967D01*
X2340Y960D01*
X2355Y949D01*
X2372Y942D01*
X2390Y939D01*
X2408Y942D01*
X2425Y949D01*
X2440Y960D01*
X2451Y975D01*
X2458Y992D01*
X2461Y1010D01*
X2458Y1028D01*
X2451Y1045D01*
X2440Y1060D01*
X2425Y1071D01*
X2408Y1078D01*
X2390Y1081D01*
X2372Y1078D01*
X2355Y1071D01*
X2340Y1060D01*
X2329Y1045D01*
X2322Y1028D01*
X2319Y1010D01*
X2322Y992D01*
X2327Y979D01*
X2328Y978D01*
X2316Y971D01*
X2316Y973D01*
X2310Y980D01*
X2295Y991D01*
X2278Y998D01*
X2260Y1001D01*
X2242Y998D01*
X2225Y991D01*
X2210Y980D01*
X2201Y968D01*
X2193Y968D01*
X2192Y968D01*
X2187Y970D01*
X2181Y985D01*
X2170Y1000D01*
X2155Y1011D01*
X2138Y1018D01*
X2120Y1021D01*
X2103Y1018D01*
X2101Y1019D01*
X2090Y1027D01*
X2088Y1041D01*
X2081Y1058D01*
X2070Y1072D01*
X2055Y1084D01*
X2038Y1091D01*
X2020Y1093D01*
D02*
G37*
G36*
X1710Y1241D02*
X1692Y1238D01*
X1675Y1231D01*
X1660Y1220D01*
X1649Y1205D01*
X1642Y1188D01*
X1639Y1170D01*
X1642Y1152D01*
X1649Y1135D01*
X1660Y1120D01*
X1675Y1109D01*
X1692Y1102D01*
X1697Y1101D01*
X1702Y1099D01*
X1748Y1052D01*
X1742Y1040D01*
X1740Y1041D01*
X1722Y1038D01*
X1705Y1031D01*
X1690Y1020D01*
X1679Y1005D01*
X1672Y988D01*
X1669Y970D01*
X1672Y952D01*
X1679Y935D01*
X1690Y920D01*
X1705Y909D01*
X1722Y902D01*
X1740Y899D01*
X1758Y902D01*
X1775Y909D01*
X1790Y920D01*
X1801Y935D01*
X1801Y935D01*
X1814Y932D01*
Y830D01*
X1818Y809D01*
X1830Y790D01*
X1871Y750D01*
X1867Y736D01*
X1855Y731D01*
X1851Y728D01*
X1850Y730D01*
X1835Y741D01*
X1818Y748D01*
X1800Y751D01*
X1782Y748D01*
X1765Y741D01*
X1750Y730D01*
X1739Y715D01*
X1732Y698D01*
X1729Y680D01*
X1732Y662D01*
X1739Y645D01*
X1750Y630D01*
X1765Y619D01*
X1782Y612D01*
X1800Y609D01*
X1818Y612D01*
X1835Y619D01*
X1839Y622D01*
X1840Y620D01*
X1855Y609D01*
X1872Y602D01*
X1884Y600D01*
X1892Y589D01*
X1892Y587D01*
X1891Y584D01*
X1808D01*
X1801Y587D01*
X1795Y591D01*
X1778Y598D01*
X1760Y601D01*
X1742Y598D01*
X1725Y591D01*
X1710Y580D01*
X1699Y565D01*
X1692Y548D01*
X1689Y530D01*
X1692Y512D01*
X1699Y495D01*
X1710Y480D01*
X1725Y469D01*
X1742Y462D01*
X1760Y459D01*
X1778Y462D01*
X1795Y469D01*
X1801Y473D01*
X1808Y476D01*
X1826D01*
Y346D01*
X1673D01*
X1580Y440D01*
X1561Y452D01*
X1546Y455D01*
X1545Y455D01*
X1542Y456D01*
X1535Y461D01*
X1518Y468D01*
X1500Y471D01*
X1482Y468D01*
X1465Y461D01*
X1450Y450D01*
X1439Y435D01*
X1432Y418D01*
X1429Y400D01*
X1432Y382D01*
X1435Y374D01*
X1387Y326D01*
X1330D01*
X1309Y322D01*
X1290Y310D01*
X1287Y306D01*
X1011D01*
X1000Y320D01*
X985Y331D01*
X968Y338D01*
X950Y341D01*
X932Y338D01*
X915Y331D01*
X900Y320D01*
X889Y305D01*
X882Y288D01*
X879Y270D01*
X882Y252D01*
X889Y235D01*
X900Y220D01*
X915Y209D01*
X932Y202D01*
X946Y200D01*
X949Y198D01*
X970Y194D01*
X1310D01*
X1331Y198D01*
X1350Y210D01*
X1353Y214D01*
X1410D01*
X1431Y218D01*
X1450Y230D01*
X1540Y320D01*
X1540Y320D01*
X1610Y250D01*
X1629Y238D01*
X1650Y234D01*
X1867D01*
X1880Y220D01*
X1899Y208D01*
X1920Y204D01*
X2130D01*
X2151Y208D01*
X2170Y220D01*
X2216Y266D01*
X2221Y271D01*
X2223Y271D01*
X2237Y283D01*
X2249Y297D01*
X2256Y314D01*
X2258Y333D01*
X2256Y351D01*
X2249Y368D01*
X2245Y372D01*
X2244Y377D01*
Y444D01*
X2275Y476D01*
X2286Y469D01*
X2282Y458D01*
X2279Y440D01*
X2282Y422D01*
X2289Y405D01*
X2300Y390D01*
X2315Y379D01*
X2332Y372D01*
X2350Y369D01*
X2368Y372D01*
X2385Y379D01*
X2400Y390D01*
X2411Y405D01*
X2418Y422D01*
X2421Y440D01*
X2418Y458D01*
X2411Y475D01*
X2400Y490D01*
X2385Y501D01*
X2368Y508D01*
X2350Y511D01*
X2332Y508D01*
X2321Y504D01*
X2314Y515D01*
X2396Y597D01*
X2401Y596D01*
X2410Y593D01*
X2420Y580D01*
X2435Y569D01*
X2452Y562D01*
X2470Y559D01*
X2488Y562D01*
X2505Y569D01*
X2520Y580D01*
X2531Y595D01*
X2538Y612D01*
X2541Y630D01*
X2538Y648D01*
X2531Y665D01*
X2520Y680D01*
X2505Y691D01*
X2488Y698D01*
X2470Y701D01*
X2459Y699D01*
X2446Y708D01*
Y756D01*
X2448Y760D01*
X2451Y765D01*
X2458Y782D01*
X2461Y800D01*
X2458Y818D01*
X2451Y835D01*
X2440Y850D01*
X2425Y861D01*
X2408Y868D01*
X2390Y871D01*
X2372Y868D01*
X2355Y861D01*
X2340Y850D01*
X2329Y835D01*
X2324Y823D01*
X2310Y820D01*
X2310Y820D01*
X2295Y831D01*
X2278Y838D01*
X2260Y841D01*
X2242Y838D01*
X2225Y831D01*
X2210Y820D01*
X2199Y805D01*
X2192Y788D01*
X2189Y770D01*
X2192Y752D01*
X2199Y735D01*
X2210Y720D01*
X2225Y709D01*
X2242Y702D01*
X2260Y699D01*
X2278Y702D01*
X2295Y709D01*
X2310Y720D01*
X2321Y735D01*
X2321Y735D01*
X2334Y732D01*
Y693D01*
X2148Y507D01*
X2136Y489D01*
X2131Y468D01*
Y377D01*
X2130Y372D01*
X2126Y368D01*
X2119Y351D01*
X2117Y333D01*
X2118Y327D01*
X2107Y316D01*
X1943D01*
X1934Y326D01*
Y472D01*
X1946Y476D01*
X1958Y474D01*
X1979Y478D01*
X1997Y490D01*
X2009Y509D01*
X2014Y530D01*
Y686D01*
X2026Y694D01*
X2032Y692D01*
X2050Y689D01*
X2068Y692D01*
X2085Y699D01*
X2100Y710D01*
X2111Y725D01*
X2118Y742D01*
X2121Y760D01*
X2118Y778D01*
X2111Y795D01*
X2100Y810D01*
X2085Y821D01*
X2068Y828D01*
X2050Y831D01*
X2032Y828D01*
X2015Y821D01*
X2000Y810D01*
X1995Y803D01*
X1978Y801D01*
X1926Y853D01*
Y1010D01*
X1922Y1031D01*
X1910Y1050D01*
X1781Y1178D01*
X1779Y1183D01*
X1778Y1188D01*
X1771Y1205D01*
X1760Y1220D01*
X1745Y1231D01*
X1728Y1238D01*
X1710Y1241D01*
D02*
G37*
%LPD*%
G36*
X820Y1060D02*
X800D01*
X789Y1079D01*
X831D01*
X820Y1060D01*
D02*
G37*
G36*
X798Y634D02*
X789Y614D01*
X769Y651D01*
X789Y653D01*
X798Y634D01*
D02*
G37*
G36*
X1747Y1154D02*
X1726Y1133D01*
X1710Y1140D01*
X1740Y1170D01*
X1747Y1154D01*
D02*
G37*
G36*
X992Y265D02*
X984Y235D01*
X954Y240D01*
X980Y271D01*
X992Y265D01*
D02*
G37*
G36*
X2405Y762D02*
X2375D01*
X2369Y779D01*
X2411D01*
X2405Y762D01*
D02*
G37*
G36*
X1538Y415D02*
Y385D01*
X1524Y383D01*
Y418D01*
X1538Y415D01*
D02*
G37*
G36*
X1799Y543D02*
Y518D01*
X1781Y509D01*
Y551D01*
X1799Y543D01*
D02*
G37*
G36*
X2198Y304D02*
X2186Y295D01*
X2155Y306D01*
X2160Y322D01*
X2198Y304D01*
D02*
G37*
G36*
X2208Y354D02*
X2167D01*
X2173Y370D01*
X2202D01*
X2208Y354D01*
D02*
G37*
G36*
X1515Y362D02*
X1485D01*
X1482Y376D01*
X1518D01*
X1515Y362D01*
D02*
G37*
G54D24*
X950Y270D02*
X970Y250D01*
X1310D01*
X1330Y270D01*
X1410D01*
X1500Y360D01*
Y400D01*
X1540D01*
X1650Y290D01*
X1890D01*
X1920Y260D01*
X2130D01*
X2188Y317D01*
Y333D01*
Y468D01*
X2390Y670D01*
Y800D01*
X1710Y1170D02*
X1870Y1010D01*
Y830D02*
Y1010D01*
Y830D02*
X1958Y743D01*
Y530D02*
Y743D01*
X-200Y2850D02*
X-247D01*
X-270Y2827D01*
Y2733D01*
X-247Y2710D01*
X-200D01*
X-177Y2733D01*
Y2827D01*
X-200Y2850D01*
X-130Y2803D02*
Y2733D01*
X-107Y2710D01*
X-37D01*
Y2803D01*
X33Y2827D02*
Y2803D01*
X10D01*
X57D01*
X33D01*
Y2733D01*
X57Y2710D01*
X127D02*
X173D01*
X150D01*
Y2850D01*
X127D01*
X243Y2710D02*
X290D01*
X266D01*
Y2803D01*
X243D01*
X360Y2710D02*
Y2803D01*
X430D01*
X453Y2780D01*
Y2710D01*
X570D02*
X523D01*
X500Y2733D01*
Y2780D01*
X523Y2803D01*
X570D01*
X593Y2780D01*
Y2757D01*
X500D01*
X780Y2710D02*
Y2850D01*
X826Y2803D01*
X873Y2850D01*
Y2710D01*
X1013Y2850D02*
X920D01*
Y2710D01*
X1013D01*
X920Y2780D02*
X966D01*
X1153Y2827D02*
X1130Y2850D01*
X1083D01*
X1060Y2827D01*
Y2733D01*
X1083Y2710D01*
X1130D01*
X1153Y2733D01*
X1200Y2850D02*
Y2710D01*
Y2780D01*
X1293D01*
Y2850D01*
Y2710D01*
X1573Y2850D02*
X1479D01*
Y2780D01*
X1526Y2803D01*
X1549D01*
X1573Y2780D01*
Y2733D01*
X1549Y2710D01*
X1503D01*
X1479Y2733D01*
G54D25*
X760Y622D02*
X772D01*
X810Y660D01*
Y1100D01*
X-290Y2000D02*
Y1900D01*
X-223D01*
X-190D02*
Y1967D01*
X-157Y2000D01*
X-123Y1967D01*
Y1900D01*
Y1950D01*
X-190D01*
X-90Y2000D02*
Y1983D01*
X-57Y1950D01*
X-23Y1983D01*
Y2000D01*
X-57Y1950D02*
Y1900D01*
X77Y2000D02*
X10D01*
Y1900D01*
X77D01*
X10Y1950D02*
X43D01*
X110Y1900D02*
Y2000D01*
X160D01*
X177Y1983D01*
Y1950D01*
X160Y1933D01*
X110D01*
X143D02*
X177Y1900D01*
X376D02*
X310D01*
X376Y1967D01*
Y1983D01*
X360Y2000D01*
X326D01*
X310Y1983D01*
X3570Y1680D02*
Y1580D01*
X3637D01*
X3670D02*
Y1647D01*
X3703Y1680D01*
X3737Y1647D01*
Y1580D01*
Y1630D01*
X3670D01*
X3770Y1680D02*
Y1663D01*
X3803Y1630D01*
X3837Y1663D01*
Y1680D01*
X3803Y1630D02*
Y1580D01*
X3937Y1680D02*
X3870D01*
Y1580D01*
X3937D01*
X3870Y1630D02*
X3903D01*
X3970Y1580D02*
Y1680D01*
X4020D01*
X4037Y1663D01*
Y1630D01*
X4020Y1613D01*
X3970D01*
X4003D02*
X4037Y1580D01*
X4236D02*
X4170D01*
X4236Y1647D01*
Y1663D01*
X4220Y1680D01*
X4186D01*
X4170Y1663D01*
X3530Y1248D02*
X3597D01*
X3563D01*
Y1148D01*
X3647D02*
X3680D01*
X3697Y1164D01*
Y1198D01*
X3680Y1214D01*
X3647D01*
X3630Y1198D01*
Y1164D01*
X3647Y1148D01*
X3730Y1114D02*
Y1214D01*
X3780D01*
X3797Y1198D01*
Y1164D01*
X3780Y1148D01*
X3730D01*
X3930D02*
X3963D01*
X3947D01*
Y1248D01*
X3930D01*
X4030Y1214D02*
X4063D01*
X4080Y1198D01*
Y1148D01*
X4030D01*
X4013Y1164D01*
X4030Y1181D01*
X4080D01*
X4113Y1214D02*
Y1164D01*
X4130Y1148D01*
X4180D01*
Y1131D01*
X4163Y1114D01*
X4146D01*
X4180Y1148D02*
Y1214D01*
X4263Y1148D02*
X4230D01*
X4213Y1164D01*
Y1198D01*
X4230Y1214D01*
X4263D01*
X4280Y1198D01*
Y1181D01*
X4213D01*
X4313Y1214D02*
Y1148D01*
Y1181D01*
X4330Y1198D01*
X4346Y1214D01*
X4363D01*
X4613Y1148D02*
Y1164D01*
X4630D01*
Y1148D01*
X4613D01*
X4763Y1231D02*
X4746Y1248D01*
X4713D01*
X4696Y1231D01*
Y1164D01*
X4713Y1148D01*
X4746D01*
X4763Y1164D01*
Y1198D01*
X4730D01*
X4796Y1248D02*
X4863D01*
X4830D01*
Y1148D01*
X4896Y1248D02*
Y1148D01*
X4963D01*
X3530Y946D02*
Y1046D01*
X3580D01*
X3597Y1030D01*
Y996D01*
X3580Y980D01*
X3530D01*
X3630Y946D02*
X3663D01*
X3647D01*
Y1046D01*
X3630D01*
X3730Y1013D02*
X3763D01*
X3780Y996D01*
Y946D01*
X3730D01*
X3713Y963D01*
X3730Y980D01*
X3780D01*
X3813Y946D02*
Y1013D01*
X3863D01*
X3880Y996D01*
Y946D01*
X3963D02*
X3930D01*
X3913Y963D01*
Y996D01*
X3930Y1013D01*
X3963D01*
X3980Y996D01*
Y980D01*
X3913D01*
X4113Y946D02*
X4146D01*
X4130D01*
Y1046D01*
X4113Y1030D01*
X4396Y946D02*
Y963D01*
X4413D01*
Y946D01*
X4396D01*
X4546Y1030D02*
X4530Y1046D01*
X4496D01*
X4480Y1030D01*
Y963D01*
X4496Y946D01*
X4530D01*
X4546Y963D01*
Y996D01*
X4513D01*
X4580Y946D02*
Y1046D01*
X4630D01*
X4646Y1030D01*
Y996D01*
X4630Y980D01*
X4580D01*
X4680Y946D02*
X4713D01*
X4696D01*
Y1046D01*
X4680Y1030D01*
X3530Y778D02*
Y878D01*
X3563Y845D01*
X3597Y878D01*
Y778D01*
X3630D02*
X3663D01*
X3647D01*
Y845D01*
X3630D01*
X3780Y878D02*
Y778D01*
X3730D01*
X3713Y795D01*
Y828D01*
X3730Y845D01*
X3780D01*
X3913Y878D02*
Y778D01*
X3980D01*
X4030Y845D02*
X4063D01*
X4080Y828D01*
Y778D01*
X4030D01*
X4013Y795D01*
X4030Y812D01*
X4080D01*
X4113Y845D02*
Y795D01*
X4130Y778D01*
X4180D01*
Y762D01*
X4163Y745D01*
X4146D01*
X4180Y778D02*
Y845D01*
X4263Y778D02*
X4230D01*
X4213Y795D01*
Y828D01*
X4230Y845D01*
X4263D01*
X4280Y828D01*
Y812D01*
X4213D01*
X4313Y845D02*
Y778D01*
Y812D01*
X4330Y828D01*
X4346Y845D01*
X4363D01*
X4513Y878D02*
Y778D01*
X4580D01*
X4680D02*
X4613D01*
X4680Y845D01*
Y862D01*
X4663Y878D01*
X4630D01*
X4613Y862D01*
X4913Y778D02*
Y795D01*
X4930D01*
Y778D01*
X4913D01*
X5063Y862D02*
X5046Y878D01*
X5013D01*
X4996Y862D01*
Y795D01*
X5013Y778D01*
X5046D01*
X5063Y795D01*
Y828D01*
X5030D01*
X5096Y778D02*
X5129D01*
X5113D01*
Y878D01*
X5096Y862D01*
X3530Y677D02*
Y577D01*
X3580D01*
X3597Y594D01*
Y611D01*
X3580Y627D01*
X3530D01*
X3580D01*
X3597Y644D01*
Y661D01*
X3580Y677D01*
X3530D01*
X3647Y577D02*
X3680D01*
X3697Y594D01*
Y627D01*
X3680Y644D01*
X3647D01*
X3630Y627D01*
Y594D01*
X3647Y577D01*
X3747Y661D02*
Y644D01*
X3730D01*
X3763D01*
X3747D01*
Y594D01*
X3763Y577D01*
X3830Y661D02*
Y644D01*
X3813D01*
X3847D01*
X3830D01*
Y594D01*
X3847Y577D01*
X3913D02*
X3947D01*
X3963Y594D01*
Y627D01*
X3947Y644D01*
X3913D01*
X3897Y627D01*
Y594D01*
X3913Y577D01*
X3997D02*
Y644D01*
X4013D01*
X4030Y627D01*
Y577D01*
Y627D01*
X4047Y644D01*
X4063Y627D01*
Y577D01*
X4196Y677D02*
Y577D01*
X4263D01*
X4313Y644D02*
X4346D01*
X4363Y627D01*
Y577D01*
X4313D01*
X4296Y594D01*
X4313Y611D01*
X4363D01*
X4396Y644D02*
Y594D01*
X4413Y577D01*
X4463D01*
Y561D01*
X4446Y544D01*
X4430D01*
X4463Y577D02*
Y644D01*
X4546Y577D02*
X4513D01*
X4496Y594D01*
Y627D01*
X4513Y644D01*
X4546D01*
X4563Y627D01*
Y611D01*
X4496D01*
X4596Y644D02*
Y577D01*
Y611D01*
X4613Y627D01*
X4630Y644D01*
X4646D01*
X4796Y577D02*
Y594D01*
X4813D01*
Y577D01*
X4796D01*
X4946Y661D02*
X4930Y677D01*
X4896D01*
X4880Y661D01*
Y594D01*
X4896Y577D01*
X4930D01*
X4946Y594D01*
Y627D01*
X4913D01*
X4980Y677D02*
Y577D01*
X5030D01*
X5046Y594D01*
Y611D01*
X5030Y627D01*
X4980D01*
X5030D01*
X5046Y644D01*
Y661D01*
X5030Y677D01*
X4980D01*
X5080D02*
Y577D01*
X5146D01*
X3580Y308D02*
X3547D01*
X3530Y291D01*
Y225D01*
X3547Y208D01*
X3580D01*
X3597Y225D01*
Y291D01*
X3580Y308D01*
X3630Y275D02*
Y225D01*
X3647Y208D01*
X3697D01*
Y275D01*
X3747Y291D02*
Y275D01*
X3730D01*
X3763D01*
X3747D01*
Y225D01*
X3763Y208D01*
X3813D02*
X3847D01*
X3830D01*
Y308D01*
X3813D01*
X3897Y208D02*
X3930D01*
X3913D01*
Y275D01*
X3897D01*
X3980Y208D02*
Y275D01*
X4030D01*
X4047Y258D01*
Y208D01*
X4130D02*
X4096D01*
X4080Y225D01*
Y258D01*
X4096Y275D01*
X4130D01*
X4146Y258D01*
Y241D01*
X4080D01*
X4280Y208D02*
Y225D01*
X4296D01*
Y208D01*
X4280D01*
X4430Y291D02*
X4413Y308D01*
X4380D01*
X4363Y291D01*
Y225D01*
X4380Y208D01*
X4413D01*
X4430Y225D01*
Y258D01*
X4396D01*
X4463Y208D02*
Y308D01*
X4496Y275D01*
X4530Y308D01*
Y208D01*
X4630Y308D02*
X4563D01*
Y258D01*
X4596Y275D01*
X4613D01*
X4630Y258D01*
Y225D01*
X4613Y208D01*
X4580D01*
X4563Y225D01*
X3530Y140D02*
X3597D01*
X3563D01*
Y40D01*
X3647Y107D02*
X3680D01*
X3697Y90D01*
Y40D01*
X3647D01*
X3630Y57D01*
X3647Y73D01*
X3697D01*
X3730Y140D02*
Y40D01*
X3780D01*
X3797Y57D01*
Y73D01*
Y90D01*
X3780Y107D01*
X3730D01*
X3930Y40D02*
Y57D01*
X3947D01*
Y40D01*
X3930D01*
X4080Y123D02*
X4063Y140D01*
X4030D01*
X4013Y123D01*
Y57D01*
X4030Y40D01*
X4063D01*
X4080Y57D01*
Y90D01*
X4047D01*
X4113Y40D02*
Y140D01*
X4146Y107D01*
X4180Y140D01*
Y40D01*
X4280Y140D02*
X4246Y123D01*
X4213Y90D01*
Y57D01*
X4230Y40D01*
X4263D01*
X4280Y57D01*
Y73D01*
X4263Y90D01*
X4213D01*
X-270Y3010D02*
Y2910D01*
Y2960D01*
X-203D01*
Y3010D01*
Y2910D01*
X-170D02*
X-137D01*
X-153D01*
Y3010D01*
X-170Y2993D01*
X-87D02*
X-70Y3010D01*
X-37D01*
X-20Y2993D01*
Y2977D01*
X-37Y2960D01*
X-20Y2943D01*
Y2927D01*
X-37Y2910D01*
X-70D01*
X-87Y2927D01*
Y2943D01*
X-70Y2960D01*
X-87Y2977D01*
Y2993D01*
X-70Y2960D02*
X-37D01*
X13D02*
X80D01*
X113Y2993D02*
X130Y3010D01*
X163D01*
X180Y2993D01*
Y2927D01*
X163Y2910D01*
X130D01*
X113Y2927D01*
Y2993D01*
X213D02*
X230Y3010D01*
X263D01*
X280Y2993D01*
Y2927D01*
X263Y2910D01*
X230D01*
X213Y2927D01*
Y2993D01*
X380Y2910D02*
X313D01*
X380Y2977D01*
Y2993D01*
X363Y3010D01*
X330D01*
X313Y2993D01*
X413Y2960D02*
X480D01*
X513Y2910D02*
X546D01*
X530D01*
Y3010D01*
X513Y2993D01*
X596Y2910D02*
Y2927D01*
X613D01*
Y2910D01*
X596D01*
X680D02*
Y3010D01*
X730D01*
X746Y2993D01*
Y2960D01*
X730Y2943D01*
X680D01*
X846Y2993D02*
X830Y3010D01*
X796D01*
X780Y2993D01*
Y2927D01*
X796Y2910D01*
X830D01*
X846Y2927D01*
X880Y3010D02*
Y2910D01*
X930D01*
X946Y2927D01*
Y2943D01*
X930Y2960D01*
X880D01*
X930D01*
X946Y2977D01*
Y2993D01*
X930Y3010D01*
X880D01*
X980D02*
Y2910D01*
X1030D01*
X1046Y2927D01*
Y2993D01*
X1030Y3010D01*
X980D01*
X1130D02*
X1096D01*
X1080Y2993D01*
Y2927D01*
X1096Y2910D01*
X1130D01*
X1146Y2927D01*
Y2993D01*
X1130Y3010D01*
X1246Y2993D02*
X1230Y3010D01*
X1196D01*
X1180Y2993D01*
Y2927D01*
X1196Y2910D01*
X1230D01*
X1246Y2927D01*
G54D26*
X1880Y530D02*
X1958D01*
X1760D02*
X1880D01*
Y300D02*
X1890Y290D01*
X1880Y300D02*
Y530D01*
G54D27*
X610Y-1000D02*
X3300D01*
X-390D02*
X610D01*
X-390D02*
Y2100D01*
X3300Y-1000D02*
Y2400D01*
X-390D02*
X3300D01*
X-390Y2100D02*
Y2400D01*
G54D29*
X-20Y340D02*
D03*
Y440D02*
D03*
Y540D02*
D03*
Y740D02*
D03*
Y640D02*
D03*
X2920Y330D02*
D03*
Y430D02*
D03*
Y530D02*
D03*
Y730D02*
D03*
Y630D02*
D03*
G54D31*
X390Y850D02*
D03*
X1940Y160D02*
D03*
X670Y1090D02*
D03*
X2390Y800D02*
D03*
X1710Y1170D02*
D03*
X470Y1100D02*
D03*
X950Y270D02*
D03*
X1990Y350D02*
D03*
X2080Y660D02*
D03*
X2060Y350D02*
D03*
X2280Y80D02*
D03*
X1560D02*
D03*
X1040Y1100D02*
D03*
X1510Y1250D02*
D03*
X950Y910D02*
D03*
X290Y1070D02*
D03*
X1740Y160D02*
D03*
X1060Y960D02*
D03*
X1620Y1200D02*
D03*
X1330Y1190D02*
D03*
X840Y570D02*
D03*
X1420Y600D02*
D03*
X1340Y520D02*
D03*
X1320Y800D02*
D03*
X1200D02*
D03*
X1260Y740D02*
D03*
Y860D02*
D03*
X980Y840D02*
D03*
X360Y940D02*
D03*
X2340Y1260D02*
D03*
X1980Y840D02*
D03*
X1420Y1270D02*
D03*
X940D02*
D03*
X700Y1265D02*
D03*
X460Y1260D02*
D03*
X1500Y400D02*
D03*
X1370Y190D02*
D03*
X1030Y340D02*
D03*
X580Y270D02*
D03*
X1700Y470D02*
D03*
Y590D02*
D03*
X1760Y530D02*
D03*
X890Y100D02*
D03*
X600Y700D02*
D03*
X2188Y333D02*
D03*
X760Y622D02*
D03*
X810Y1100D02*
D03*
M02*
