G04 Layer_Color=2752767*
%FSLAX42Y42*%
%MOMM*%
G71*
G01*
G75*
%ADD24C,0.30*%
%ADD25C,0.20*%
%ADD27C,0.10*%
%ADD69C,0.05*%
%ADD70C,0.07*%
G54D24*
X-200Y2850D02*
X-247D01*
X-270Y2827D01*
Y2733D01*
X-247Y2710D01*
X-200D01*
X-177Y2733D01*
Y2827D01*
X-200Y2850D01*
X-130Y2803D02*
Y2733D01*
X-107Y2710D01*
X-37D01*
Y2803D01*
X33Y2827D02*
Y2803D01*
X10D01*
X57D01*
X33D01*
Y2733D01*
X57Y2710D01*
X127D02*
X173D01*
X150D01*
Y2850D01*
X127D01*
X243Y2710D02*
X290D01*
X266D01*
Y2803D01*
X243D01*
X360Y2710D02*
Y2803D01*
X430D01*
X453Y2780D01*
Y2710D01*
X570D02*
X523D01*
X500Y2733D01*
Y2780D01*
X523Y2803D01*
X570D01*
X593Y2780D01*
Y2757D01*
X500D01*
X780Y2710D02*
Y2850D01*
X826Y2803D01*
X873Y2850D01*
Y2710D01*
X1013Y2850D02*
X920D01*
Y2710D01*
X1013D01*
X920Y2780D02*
X966D01*
X1153Y2827D02*
X1130Y2850D01*
X1083D01*
X1060Y2827D01*
Y2733D01*
X1083Y2710D01*
X1130D01*
X1153Y2733D01*
X1200Y2850D02*
Y2710D01*
Y2780D01*
X1293D01*
Y2850D01*
Y2710D01*
X1573Y2850D02*
X1479D01*
Y2780D01*
X1526Y2803D01*
X1549D01*
X1573Y2780D01*
Y2733D01*
X1549Y2710D01*
X1503D01*
X1479Y2733D01*
G54D25*
X3530Y1248D02*
X3597D01*
X3563D01*
Y1148D01*
X3647D02*
X3680D01*
X3697Y1164D01*
Y1198D01*
X3680Y1214D01*
X3647D01*
X3630Y1198D01*
Y1164D01*
X3647Y1148D01*
X3730Y1114D02*
Y1214D01*
X3780D01*
X3797Y1198D01*
Y1164D01*
X3780Y1148D01*
X3730D01*
X3930D02*
X3963D01*
X3947D01*
Y1248D01*
X3930D01*
X4030Y1214D02*
X4063D01*
X4080Y1198D01*
Y1148D01*
X4030D01*
X4013Y1164D01*
X4030Y1181D01*
X4080D01*
X4113Y1214D02*
Y1164D01*
X4130Y1148D01*
X4180D01*
Y1131D01*
X4163Y1114D01*
X4146D01*
X4180Y1148D02*
Y1214D01*
X4263Y1148D02*
X4230D01*
X4213Y1164D01*
Y1198D01*
X4230Y1214D01*
X4263D01*
X4280Y1198D01*
Y1181D01*
X4213D01*
X4313Y1214D02*
Y1148D01*
Y1181D01*
X4330Y1198D01*
X4346Y1214D01*
X4363D01*
X4613Y1148D02*
Y1164D01*
X4630D01*
Y1148D01*
X4613D01*
X4763Y1231D02*
X4746Y1248D01*
X4713D01*
X4696Y1231D01*
Y1164D01*
X4713Y1148D01*
X4746D01*
X4763Y1164D01*
Y1198D01*
X4730D01*
X4796Y1248D02*
X4863D01*
X4830D01*
Y1148D01*
X4896Y1248D02*
Y1148D01*
X4963D01*
X3530Y946D02*
Y1046D01*
X3580D01*
X3597Y1030D01*
Y996D01*
X3580Y980D01*
X3530D01*
X3630Y946D02*
X3663D01*
X3647D01*
Y1046D01*
X3630D01*
X3730Y1013D02*
X3763D01*
X3780Y996D01*
Y946D01*
X3730D01*
X3713Y963D01*
X3730Y980D01*
X3780D01*
X3813Y946D02*
Y1013D01*
X3863D01*
X3880Y996D01*
Y946D01*
X3963D02*
X3930D01*
X3913Y963D01*
Y996D01*
X3930Y1013D01*
X3963D01*
X3980Y996D01*
Y980D01*
X3913D01*
X4113Y946D02*
X4146D01*
X4130D01*
Y1046D01*
X4113Y1030D01*
X4396Y946D02*
Y963D01*
X4413D01*
Y946D01*
X4396D01*
X4546Y1030D02*
X4530Y1046D01*
X4496D01*
X4480Y1030D01*
Y963D01*
X4496Y946D01*
X4530D01*
X4546Y963D01*
Y996D01*
X4513D01*
X4580Y946D02*
Y1046D01*
X4630D01*
X4646Y1030D01*
Y996D01*
X4630Y980D01*
X4580D01*
X4680Y946D02*
X4713D01*
X4696D01*
Y1046D01*
X4680Y1030D01*
X3530Y778D02*
Y878D01*
X3563Y845D01*
X3597Y878D01*
Y778D01*
X3630D02*
X3663D01*
X3647D01*
Y845D01*
X3630D01*
X3780Y878D02*
Y778D01*
X3730D01*
X3713Y795D01*
Y828D01*
X3730Y845D01*
X3780D01*
X3913Y878D02*
Y778D01*
X3980D01*
X4030Y845D02*
X4063D01*
X4080Y828D01*
Y778D01*
X4030D01*
X4013Y795D01*
X4030Y812D01*
X4080D01*
X4113Y845D02*
Y795D01*
X4130Y778D01*
X4180D01*
Y762D01*
X4163Y745D01*
X4146D01*
X4180Y778D02*
Y845D01*
X4263Y778D02*
X4230D01*
X4213Y795D01*
Y828D01*
X4230Y845D01*
X4263D01*
X4280Y828D01*
Y812D01*
X4213D01*
X4313Y845D02*
Y778D01*
Y812D01*
X4330Y828D01*
X4346Y845D01*
X4363D01*
X4513Y878D02*
Y778D01*
X4580D01*
X4680D02*
X4613D01*
X4680Y845D01*
Y862D01*
X4663Y878D01*
X4630D01*
X4613Y862D01*
X4913Y778D02*
Y795D01*
X4930D01*
Y778D01*
X4913D01*
X5063Y862D02*
X5046Y878D01*
X5013D01*
X4996Y862D01*
Y795D01*
X5013Y778D01*
X5046D01*
X5063Y795D01*
Y828D01*
X5030D01*
X5096Y778D02*
X5129D01*
X5113D01*
Y878D01*
X5096Y862D01*
X3530Y677D02*
Y577D01*
X3580D01*
X3597Y594D01*
Y611D01*
X3580Y627D01*
X3530D01*
X3580D01*
X3597Y644D01*
Y661D01*
X3580Y677D01*
X3530D01*
X3647Y577D02*
X3680D01*
X3697Y594D01*
Y627D01*
X3680Y644D01*
X3647D01*
X3630Y627D01*
Y594D01*
X3647Y577D01*
X3747Y661D02*
Y644D01*
X3730D01*
X3763D01*
X3747D01*
Y594D01*
X3763Y577D01*
X3830Y661D02*
Y644D01*
X3813D01*
X3847D01*
X3830D01*
Y594D01*
X3847Y577D01*
X3913D02*
X3947D01*
X3963Y594D01*
Y627D01*
X3947Y644D01*
X3913D01*
X3897Y627D01*
Y594D01*
X3913Y577D01*
X3997D02*
Y644D01*
X4013D01*
X4030Y627D01*
Y577D01*
Y627D01*
X4047Y644D01*
X4063Y627D01*
Y577D01*
X4196Y677D02*
Y577D01*
X4263D01*
X4313Y644D02*
X4346D01*
X4363Y627D01*
Y577D01*
X4313D01*
X4296Y594D01*
X4313Y611D01*
X4363D01*
X4396Y644D02*
Y594D01*
X4413Y577D01*
X4463D01*
Y561D01*
X4446Y544D01*
X4430D01*
X4463Y577D02*
Y644D01*
X4546Y577D02*
X4513D01*
X4496Y594D01*
Y627D01*
X4513Y644D01*
X4546D01*
X4563Y627D01*
Y611D01*
X4496D01*
X4596Y644D02*
Y577D01*
Y611D01*
X4613Y627D01*
X4630Y644D01*
X4646D01*
X4796Y577D02*
Y594D01*
X4813D01*
Y577D01*
X4796D01*
X4946Y661D02*
X4930Y677D01*
X4896D01*
X4880Y661D01*
Y594D01*
X4896Y577D01*
X4930D01*
X4946Y594D01*
Y627D01*
X4913D01*
X4980Y677D02*
Y577D01*
X5030D01*
X5046Y594D01*
Y611D01*
X5030Y627D01*
X4980D01*
X5030D01*
X5046Y644D01*
Y661D01*
X5030Y677D01*
X4980D01*
X5080D02*
Y577D01*
X5146D01*
X3580Y308D02*
X3547D01*
X3530Y291D01*
Y225D01*
X3547Y208D01*
X3580D01*
X3597Y225D01*
Y291D01*
X3580Y308D01*
X3630Y275D02*
Y225D01*
X3647Y208D01*
X3697D01*
Y275D01*
X3747Y291D02*
Y275D01*
X3730D01*
X3763D01*
X3747D01*
Y225D01*
X3763Y208D01*
X3813D02*
X3847D01*
X3830D01*
Y308D01*
X3813D01*
X3897Y208D02*
X3930D01*
X3913D01*
Y275D01*
X3897D01*
X3980Y208D02*
Y275D01*
X4030D01*
X4047Y258D01*
Y208D01*
X4130D02*
X4096D01*
X4080Y225D01*
Y258D01*
X4096Y275D01*
X4130D01*
X4146Y258D01*
Y241D01*
X4080D01*
X4280Y208D02*
Y225D01*
X4296D01*
Y208D01*
X4280D01*
X4430Y291D02*
X4413Y308D01*
X4380D01*
X4363Y291D01*
Y225D01*
X4380Y208D01*
X4413D01*
X4430Y225D01*
Y258D01*
X4396D01*
X4463Y208D02*
Y308D01*
X4496Y275D01*
X4530Y308D01*
Y208D01*
X4630Y308D02*
X4563D01*
Y258D01*
X4596Y275D01*
X4613D01*
X4630Y258D01*
Y225D01*
X4613Y208D01*
X4580D01*
X4563Y225D01*
X3530Y140D02*
X3597D01*
X3563D01*
Y40D01*
X3647Y107D02*
X3680D01*
X3697Y90D01*
Y40D01*
X3647D01*
X3630Y57D01*
X3647Y73D01*
X3697D01*
X3730Y140D02*
Y40D01*
X3780D01*
X3797Y57D01*
Y73D01*
Y90D01*
X3780Y107D01*
X3730D01*
X3930Y40D02*
Y57D01*
X3947D01*
Y40D01*
X3930D01*
X4080Y123D02*
X4063Y140D01*
X4030D01*
X4013Y123D01*
Y57D01*
X4030Y40D01*
X4063D01*
X4080Y57D01*
Y90D01*
X4047D01*
X4113Y40D02*
Y140D01*
X4146Y107D01*
X4180Y140D01*
Y40D01*
X4280Y140D02*
X4246Y123D01*
X4213Y90D01*
Y57D01*
X4230Y40D01*
X4263D01*
X4280Y57D01*
Y73D01*
X4263Y90D01*
X4213D01*
X-270Y3010D02*
Y2910D01*
Y2960D01*
X-203D01*
Y3010D01*
Y2910D01*
X-170D02*
X-137D01*
X-153D01*
Y3010D01*
X-170Y2993D01*
X-87D02*
X-70Y3010D01*
X-37D01*
X-20Y2993D01*
Y2977D01*
X-37Y2960D01*
X-20Y2943D01*
Y2927D01*
X-37Y2910D01*
X-70D01*
X-87Y2927D01*
Y2943D01*
X-70Y2960D01*
X-87Y2977D01*
Y2993D01*
X-70Y2960D02*
X-37D01*
X13D02*
X80D01*
X113Y2993D02*
X130Y3010D01*
X163D01*
X180Y2993D01*
Y2927D01*
X163Y2910D01*
X130D01*
X113Y2927D01*
Y2993D01*
X213D02*
X230Y3010D01*
X263D01*
X280Y2993D01*
Y2927D01*
X263Y2910D01*
X230D01*
X213Y2927D01*
Y2993D01*
X380Y2910D02*
X313D01*
X380Y2977D01*
Y2993D01*
X363Y3010D01*
X330D01*
X313Y2993D01*
X413Y2960D02*
X480D01*
X513Y2910D02*
X546D01*
X530D01*
Y3010D01*
X513Y2993D01*
X596Y2910D02*
Y2927D01*
X613D01*
Y2910D01*
X596D01*
X680D02*
Y3010D01*
X730D01*
X746Y2993D01*
Y2960D01*
X730Y2943D01*
X680D01*
X846Y2993D02*
X830Y3010D01*
X796D01*
X780Y2993D01*
Y2927D01*
X796Y2910D01*
X830D01*
X846Y2927D01*
X880Y3010D02*
Y2910D01*
X930D01*
X946Y2927D01*
Y2943D01*
X930Y2960D01*
X880D01*
X930D01*
X946Y2977D01*
Y2993D01*
X930Y3010D01*
X880D01*
X980D02*
Y2910D01*
X1030D01*
X1046Y2927D01*
Y2993D01*
X1030Y3010D01*
X980D01*
X1130D02*
X1096D01*
X1080Y2993D01*
Y2927D01*
X1096Y2910D01*
X1130D01*
X1146Y2927D01*
Y2993D01*
X1130Y3010D01*
X1246Y2993D02*
X1230Y3010D01*
X1196D01*
X1180Y2993D01*
Y2927D01*
X1196Y2910D01*
X1230D01*
X1246Y2927D01*
G54D27*
X610Y-1000D02*
X3300D01*
X-390D02*
X610D01*
X-390D02*
Y2100D01*
X3300Y-1000D02*
Y2400D01*
X-390D02*
X3300D01*
X-390Y2100D02*
Y2400D01*
G54D69*
X1480Y-620D02*
Y-580D01*
X1520D01*
Y-620D01*
X1480D01*
Y1980D02*
Y2020D01*
X1520D01*
Y1980D01*
X1480D01*
X180Y100D02*
X160Y140D01*
X200D01*
X180Y100D01*
X2720Y820D02*
X2700Y860D01*
X2740D01*
X2720Y820D01*
Y300D02*
X2700Y340D01*
X2740D01*
X2720Y300D01*
X180Y290D02*
X160Y330D01*
X200D01*
X180Y290D01*
X2720Y100D02*
X2700Y140D01*
X2740D01*
X2720Y100D01*
Y600D02*
X2700Y640D01*
X2740D01*
X2720Y600D01*
X180Y700D02*
X160Y740D01*
X200D01*
X180Y700D01*
Y1220D02*
X160Y1260D01*
X200D01*
X180Y1220D01*
Y500D02*
X160Y540D01*
X200D01*
X180Y500D01*
X2720Y1220D02*
X2700Y1260D01*
X2740D01*
X2720Y1220D01*
X390Y830D02*
X400Y840D01*
X410D01*
X400Y850D01*
X410Y860D01*
X400D01*
X390Y870D01*
X380Y860D01*
X370D01*
X380Y850D01*
X370Y840D01*
X380D01*
X390Y830D01*
X2260Y910D02*
X2270Y920D01*
X2280D01*
X2270Y930D01*
X2280Y940D01*
X2270D01*
X2260Y950D01*
X2250Y940D01*
X2240D01*
X2250Y930D01*
X2240Y920D01*
X2250D01*
X2260Y910D01*
Y750D02*
X2270Y760D01*
X2280D01*
X2270Y770D01*
X2280Y780D01*
X2270D01*
X2260Y790D01*
X2250Y780D01*
X2240D01*
X2250Y770D01*
X2240Y760D01*
X2250D01*
X2260Y750D01*
X2120Y930D02*
X2130Y940D01*
X2140D01*
X2130Y950D01*
X2140Y960D01*
X2130D01*
X2120Y970D01*
X2110Y960D01*
X2100D01*
X2110Y950D01*
X2100Y940D01*
X2110D01*
X2120Y930D01*
X1940Y140D02*
X1950Y150D01*
X1960D01*
X1950Y160D01*
X1960Y170D01*
X1950D01*
X1940Y180D01*
X1930Y170D01*
X1920D01*
X1930Y160D01*
X1920Y150D01*
X1930D01*
X1940Y140D01*
X670Y1070D02*
X680Y1080D01*
X690D01*
X680Y1090D01*
X690Y1100D01*
X680D01*
X670Y1110D01*
X660Y1100D01*
X650D01*
X660Y1090D01*
X650Y1080D01*
X660D01*
X670Y1070D01*
X1740Y950D02*
X1750Y960D01*
X1760D01*
X1750Y970D01*
X1760Y980D01*
X1750D01*
X1740Y990D01*
X1730Y980D01*
X1720D01*
X1730Y970D01*
X1720Y960D01*
X1730D01*
X1740Y950D01*
X1890Y650D02*
X1900Y660D01*
X1910D01*
X1900Y670D01*
X1910Y680D01*
X1900D01*
X1890Y690D01*
X1880Y680D01*
X1870D01*
X1880Y670D01*
X1870Y660D01*
X1880D01*
X1890Y650D01*
X2470Y610D02*
X2480Y620D01*
X2490D01*
X2480Y630D01*
X2490Y640D01*
X2480D01*
X2470Y650D01*
X2460Y640D01*
X2450D01*
X2460Y630D01*
X2450Y620D01*
X2460D01*
X2470Y610D01*
X2350Y420D02*
X2360Y430D01*
X2370D01*
X2360Y440D01*
X2370Y450D01*
X2360D01*
X2350Y460D01*
X2340Y450D01*
X2330D01*
X2340Y440D01*
X2330Y430D01*
X2340D01*
X2350Y420D01*
X2390Y780D02*
X2400Y790D01*
X2410D01*
X2400Y800D01*
X2410Y810D01*
X2400D01*
X2390Y820D01*
X2380Y810D01*
X2370D01*
X2380Y800D01*
X2370Y790D01*
X2380D01*
X2390Y780D01*
Y990D02*
X2400Y1000D01*
X2410D01*
X2400Y1010D01*
X2410Y1020D01*
X2400D01*
X2390Y1030D01*
X2380Y1020D01*
X2370D01*
X2380Y1010D01*
X2370Y1000D01*
X2380D01*
X2390Y990D01*
X1710Y1150D02*
X1720Y1160D01*
X1730D01*
X1720Y1170D01*
X1730Y1180D01*
X1720D01*
X1710Y1190D01*
X1700Y1180D01*
X1690D01*
X1700Y1170D01*
X1690Y1160D01*
X1700D01*
X1710Y1150D01*
X470Y1080D02*
X480Y1090D01*
X490D01*
X480Y1100D01*
X490Y1110D01*
X480D01*
X470Y1120D01*
X460Y1110D01*
X450D01*
X460Y1100D01*
X450Y1090D01*
X460D01*
X470Y1080D01*
X950Y250D02*
X960Y260D01*
X970D01*
X960Y270D01*
X970Y280D01*
X960D01*
X950Y290D01*
X940Y280D01*
X930D01*
X940Y270D01*
X930Y260D01*
X940D01*
X950Y250D01*
X1990Y330D02*
X2000Y340D01*
X2010D01*
X2000Y350D01*
X2010Y360D01*
X2000D01*
X1990Y370D01*
X1980Y360D01*
X1970D01*
X1980Y350D01*
X1970Y340D01*
X1980D01*
X1990Y330D01*
X2080Y640D02*
X2090Y650D01*
X2100D01*
X2090Y660D01*
X2100Y670D01*
X2090D01*
X2080Y680D01*
X2070Y670D01*
X2060D01*
X2070Y660D01*
X2060Y650D01*
X2070D01*
X2080Y640D01*
X2060Y330D02*
X2070Y340D01*
X2080D01*
X2070Y350D01*
X2080Y360D01*
X2070D01*
X2060Y370D01*
X2050Y360D01*
X2040D01*
X2050Y350D01*
X2040Y340D01*
X2050D01*
X2060Y330D01*
X2280Y60D02*
X2290Y70D01*
X2300D01*
X2290Y80D01*
X2300Y90D01*
X2290D01*
X2280Y100D01*
X2270Y90D01*
X2260D01*
X2270Y80D01*
X2260Y70D01*
X2270D01*
X2280Y60D01*
X1560D02*
X1570Y70D01*
X1580D01*
X1570Y80D01*
X1580Y90D01*
X1570D01*
X1560Y100D01*
X1550Y90D01*
X1540D01*
X1550Y80D01*
X1540Y70D01*
X1550D01*
X1560Y60D01*
X1040Y1080D02*
X1050Y1090D01*
X1060D01*
X1050Y1100D01*
X1060Y1110D01*
X1050D01*
X1040Y1120D01*
X1030Y1110D01*
X1020D01*
X1030Y1100D01*
X1020Y1090D01*
X1030D01*
X1040Y1080D01*
X1510Y1230D02*
X1520Y1240D01*
X1530D01*
X1520Y1250D01*
X1530Y1260D01*
X1520D01*
X1510Y1270D01*
X1500Y1260D01*
X1490D01*
X1500Y1250D01*
X1490Y1240D01*
X1500D01*
X1510Y1230D01*
X950Y890D02*
X960Y900D01*
X970D01*
X960Y910D01*
X970Y920D01*
X960D01*
X950Y930D01*
X940Y920D01*
X930D01*
X940Y910D01*
X930Y900D01*
X940D01*
X950Y890D01*
X290Y1050D02*
X300Y1060D01*
X310D01*
X300Y1070D01*
X310Y1080D01*
X300D01*
X290Y1090D01*
X280Y1080D01*
X270D01*
X280Y1070D01*
X270Y1060D01*
X280D01*
X290Y1050D01*
X1740Y140D02*
X1750Y150D01*
X1760D01*
X1750Y160D01*
X1760Y170D01*
X1750D01*
X1740Y180D01*
X1730Y170D01*
X1720D01*
X1730Y160D01*
X1720Y150D01*
X1730D01*
X1740Y140D01*
X1060Y940D02*
X1070Y950D01*
X1080D01*
X1070Y960D01*
X1080Y970D01*
X1070D01*
X1060Y980D01*
X1050Y970D01*
X1040D01*
X1050Y960D01*
X1040Y950D01*
X1050D01*
X1060Y940D01*
X1620Y1180D02*
X1630Y1190D01*
X1640D01*
X1630Y1200D01*
X1640Y1210D01*
X1630D01*
X1620Y1220D01*
X1610Y1210D01*
X1600D01*
X1610Y1200D01*
X1600Y1190D01*
X1610D01*
X1620Y1180D01*
X1330Y1170D02*
X1340Y1180D01*
X1350D01*
X1340Y1190D01*
X1350Y1200D01*
X1340D01*
X1330Y1210D01*
X1320Y1200D01*
X1310D01*
X1320Y1190D01*
X1310Y1180D01*
X1320D01*
X1330Y1170D01*
X840Y550D02*
X850Y560D01*
X860D01*
X850Y570D01*
X860Y580D01*
X850D01*
X840Y590D01*
X830Y580D01*
X820D01*
X830Y570D01*
X820Y560D01*
X830D01*
X840Y550D01*
X1420Y580D02*
X1430Y590D01*
X1440D01*
X1430Y600D01*
X1440Y610D01*
X1430D01*
X1420Y620D01*
X1410Y610D01*
X1400D01*
X1410Y600D01*
X1400Y590D01*
X1410D01*
X1420Y580D01*
X1340Y500D02*
X1350Y510D01*
X1360D01*
X1350Y520D01*
X1360Y530D01*
X1350D01*
X1340Y540D01*
X1330Y530D01*
X1320D01*
X1330Y520D01*
X1320Y510D01*
X1330D01*
X1340Y500D01*
X1320Y780D02*
X1330Y790D01*
X1340D01*
X1330Y800D01*
X1340Y810D01*
X1330D01*
X1320Y820D01*
X1310Y810D01*
X1300D01*
X1310Y800D01*
X1300Y790D01*
X1310D01*
X1320Y780D01*
X1200D02*
X1210Y790D01*
X1220D01*
X1210Y800D01*
X1220Y810D01*
X1210D01*
X1200Y820D01*
X1190Y810D01*
X1180D01*
X1190Y800D01*
X1180Y790D01*
X1190D01*
X1200Y780D01*
X1260Y720D02*
X1270Y730D01*
X1280D01*
X1270Y740D01*
X1280Y750D01*
X1270D01*
X1260Y760D01*
X1250Y750D01*
X1240D01*
X1250Y740D01*
X1240Y730D01*
X1250D01*
X1260Y720D01*
Y840D02*
X1270Y850D01*
X1280D01*
X1270Y860D01*
X1280Y870D01*
X1270D01*
X1260Y880D01*
X1250Y870D01*
X1240D01*
X1250Y860D01*
X1240Y850D01*
X1250D01*
X1260Y840D01*
X980Y820D02*
X990Y830D01*
X1000D01*
X990Y840D01*
X1000Y850D01*
X990D01*
X980Y860D01*
X970Y850D01*
X960D01*
X970Y840D01*
X960Y830D01*
X970D01*
X980Y820D01*
X360Y920D02*
X370Y930D01*
X380D01*
X370Y940D01*
X380Y950D01*
X370D01*
X360Y960D01*
X350Y950D01*
X340D01*
X350Y940D01*
X340Y930D01*
X350D01*
X360Y920D01*
X2340Y1240D02*
X2350Y1250D01*
X2360D01*
X2350Y1260D01*
X2360Y1270D01*
X2350D01*
X2340Y1280D01*
X2330Y1270D01*
X2320D01*
X2330Y1260D01*
X2320Y1250D01*
X2330D01*
X2340Y1240D01*
X1980Y820D02*
X1990Y830D01*
X2000D01*
X1990Y840D01*
X2000Y850D01*
X1990D01*
X1980Y860D01*
X1970Y850D01*
X1960D01*
X1970Y840D01*
X1960Y830D01*
X1970D01*
X1980Y820D01*
X2050Y740D02*
X2060Y750D01*
X2070D01*
X2060Y760D01*
X2070Y770D01*
X2060D01*
X2050Y780D01*
X2040Y770D01*
X2030D01*
X2040Y760D01*
X2030Y750D01*
X2040D01*
X2050Y740D01*
X1420Y1250D02*
X1430Y1260D01*
X1440D01*
X1430Y1270D01*
X1440Y1280D01*
X1430D01*
X1420Y1290D01*
X1410Y1280D01*
X1400D01*
X1410Y1270D01*
X1400Y1260D01*
X1410D01*
X1420Y1250D01*
X940D02*
X950Y1260D01*
X960D01*
X950Y1270D01*
X960Y1280D01*
X950D01*
X940Y1290D01*
X930Y1280D01*
X920D01*
X930Y1270D01*
X920Y1260D01*
X930D01*
X940Y1250D01*
X700Y1245D02*
X710Y1255D01*
X720D01*
X710Y1265D01*
X720Y1275D01*
X710D01*
X700Y1285D01*
X690Y1275D01*
X680D01*
X690Y1265D01*
X680Y1255D01*
X690D01*
X700Y1245D01*
X460Y1240D02*
X470Y1250D01*
X480D01*
X470Y1260D01*
X480Y1270D01*
X470D01*
X460Y1280D01*
X450Y1270D01*
X440D01*
X450Y1260D01*
X440Y1250D01*
X450D01*
X460Y1240D01*
X1940Y62D02*
X1950Y72D01*
X1960D01*
X1950Y82D01*
X1960Y93D01*
X1950D01*
X1940Y103D01*
X1930Y93D01*
X1920D01*
X1930Y82D01*
X1920Y72D01*
X1930D01*
X1940Y62D01*
X2450Y1230D02*
X2460Y1240D01*
X2470D01*
X2460Y1250D01*
X2470Y1260D01*
X2460D01*
X2450Y1270D01*
X2440Y1260D01*
X2430D01*
X2440Y1250D01*
X2430Y1240D01*
X2440D01*
X2450Y1230D01*
X1500Y380D02*
X1510Y390D01*
X1520D01*
X1510Y400D01*
X1520Y410D01*
X1510D01*
X1500Y420D01*
X1490Y410D01*
X1480D01*
X1490Y400D01*
X1480Y390D01*
X1490D01*
X1500Y380D01*
X1370Y170D02*
X1380Y180D01*
X1390D01*
X1380Y190D01*
X1390Y200D01*
X1380D01*
X1370Y210D01*
X1360Y200D01*
X1350D01*
X1360Y190D01*
X1350Y180D01*
X1360D01*
X1370Y170D01*
X710Y710D02*
X720Y720D01*
X730D01*
X720Y730D01*
X730Y740D01*
X720D01*
X710Y750D01*
X700Y740D01*
X690D01*
X700Y730D01*
X690Y720D01*
X700D01*
X710Y710D01*
X1030Y320D02*
X1040Y330D01*
X1050D01*
X1040Y340D01*
X1050Y350D01*
X1040D01*
X1030Y360D01*
X1020Y350D01*
X1010D01*
X1020Y340D01*
X1010Y330D01*
X1020D01*
X1030Y320D01*
X580Y250D02*
X590Y260D01*
X600D01*
X590Y270D01*
X600Y280D01*
X590D01*
X580Y290D01*
X570Y280D01*
X560D01*
X570Y270D01*
X560Y260D01*
X570D01*
X580Y250D01*
X1700Y450D02*
X1710Y460D01*
X1720D01*
X1710Y470D01*
X1720Y480D01*
X1710D01*
X1700Y490D01*
X1690Y480D01*
X1680D01*
X1690Y470D01*
X1680Y460D01*
X1690D01*
X1700Y450D01*
Y570D02*
X1710Y580D01*
X1720D01*
X1710Y590D01*
X1720Y600D01*
X1710D01*
X1700Y610D01*
X1690Y600D01*
X1680D01*
X1690Y590D01*
X1680Y580D01*
X1690D01*
X1700Y570D01*
X1760Y510D02*
X1770Y520D01*
X1780D01*
X1770Y530D01*
X1780Y540D01*
X1770D01*
X1760Y550D01*
X1750Y540D01*
X1740D01*
X1750Y530D01*
X1740Y520D01*
X1750D01*
X1760Y510D01*
X890Y80D02*
X900Y90D01*
X910D01*
X900Y100D01*
X910Y110D01*
X900D01*
X890Y120D01*
X880Y110D01*
X870D01*
X880Y100D01*
X870Y90D01*
X880D01*
X890Y80D01*
X580Y330D02*
X590Y340D01*
X600D01*
X590Y350D01*
X600Y360D01*
X590D01*
X580Y370D01*
X570Y360D01*
X560D01*
X570Y350D01*
X560Y340D01*
X570D01*
X580Y330D01*
X600Y680D02*
X610Y690D01*
X620D01*
X610Y700D01*
X620Y710D01*
X610D01*
X600Y720D01*
X590Y710D01*
X580D01*
X590Y700D01*
X580Y690D01*
X590D01*
X600Y680D01*
X2188Y312D02*
X2198Y322D01*
X2208D01*
X2198Y333D01*
X2208Y343D01*
X2198D01*
X2188Y353D01*
X2177Y343D01*
X2167D01*
X2177Y333D01*
X2167Y322D01*
X2177D01*
X2188Y312D01*
X760Y602D02*
X770Y612D01*
X780D01*
X770Y622D01*
X780Y633D01*
X770D01*
X760Y643D01*
X750Y633D01*
X740D01*
X750Y622D01*
X740Y612D01*
X750D01*
X760Y602D01*
X810Y1080D02*
X820Y1090D01*
X830D01*
X820Y1100D01*
X830Y1110D01*
X820D01*
X810Y1120D01*
X800Y1110D01*
X790D01*
X800Y1100D01*
X790Y1090D01*
X800D01*
X810Y1080D01*
X1180Y1240D02*
X1190Y1250D01*
X1200D01*
X1190Y1260D01*
X1200Y1270D01*
X1190D01*
X1180Y1280D01*
X1170Y1270D01*
X1160D01*
X1170Y1260D01*
X1160Y1250D01*
X1170D01*
X1180Y1240D01*
X940Y970D02*
X950Y980D01*
X960D01*
X950Y990D01*
X960Y1000D01*
X950D01*
X940Y1010D01*
X930Y1000D01*
X920D01*
X930Y990D01*
X920Y980D01*
X930D01*
X940Y970D01*
X2020Y1002D02*
X2030Y1012D01*
X2040D01*
X2030Y1023D01*
X2040Y1033D01*
X2030D01*
X2020Y1043D01*
X2010Y1033D01*
X2000D01*
X2010Y1023D01*
X2000Y1012D01*
X2010D01*
X2020Y1002D01*
X1800Y660D02*
X1810Y670D01*
X1820D01*
X1810Y680D01*
X1820Y690D01*
X1810D01*
X1800Y700D01*
X1790Y690D01*
X1780D01*
X1790Y680D01*
X1780Y670D01*
X1790D01*
X1800Y660D01*
G54D70*
X0Y340D02*
X-14Y359D01*
X-36Y352D01*
Y328D01*
X-14Y321D01*
X0Y340D01*
Y440D02*
X-14Y459D01*
X-36Y452D01*
Y428D01*
X-14Y421D01*
X0Y440D01*
Y540D02*
X-14Y559D01*
X-36Y552D01*
Y528D01*
X-14Y521D01*
X0Y540D01*
Y740D02*
X-14Y759D01*
X-36Y752D01*
Y728D01*
X-14Y721D01*
X0Y740D01*
Y640D02*
X-14Y659D01*
X-36Y652D01*
Y628D01*
X-14Y621D01*
X0Y640D01*
X2940Y330D02*
X2926Y349D01*
X2904Y342D01*
Y318D01*
X2926Y311D01*
X2940Y330D01*
Y430D02*
X2926Y449D01*
X2904Y442D01*
Y418D01*
X2926Y411D01*
X2940Y430D01*
Y530D02*
X2926Y549D01*
X2904Y542D01*
Y518D01*
X2926Y511D01*
X2940Y530D01*
Y730D02*
X2926Y749D01*
X2904Y742D01*
Y718D01*
X2926Y711D01*
X2940Y730D01*
Y630D02*
X2926Y649D01*
X2904Y642D01*
Y618D01*
X2926Y611D01*
X2940Y630D01*
M02*
