G04 Layer_Color=255*
%FSLAX42Y42*%
%MOMM*%
G71*
G01*
G75*
G04:AMPARAMS|DCode=10|XSize=0.57mm|YSize=0.65mm|CornerRadius=0.06mm|HoleSize=0mm|Usage=FLASHONLY|Rotation=180.000|XOffset=0mm|YOffset=0mm|HoleType=Round|Shape=RoundedRectangle|*
%AMROUNDEDRECTD10*
21,1,0.57,0.54,0,0,180.0*
21,1,0.46,0.65,0,0,180.0*
1,1,0.12,-0.23,0.27*
1,1,0.12,0.23,0.27*
1,1,0.12,0.23,-0.27*
1,1,0.12,-0.23,-0.27*
%
%ADD10ROUNDEDRECTD10*%
G04:AMPARAMS|DCode=11|XSize=0.57mm|YSize=0.65mm|CornerRadius=0.06mm|HoleSize=0mm|Usage=FLASHONLY|Rotation=90.000|XOffset=0mm|YOffset=0mm|HoleType=Round|Shape=RoundedRectangle|*
%AMROUNDEDRECTD11*
21,1,0.57,0.54,0,0,90.0*
21,1,0.46,0.65,0,0,90.0*
1,1,0.12,0.27,0.23*
1,1,0.12,0.27,-0.23*
1,1,0.12,-0.27,-0.23*
1,1,0.12,-0.27,0.23*
%
%ADD11ROUNDEDRECTD11*%
G04:AMPARAMS|DCode=12|XSize=0.8mm|YSize=1mm|CornerRadius=0.04mm|HoleSize=0mm|Usage=FLASHONLY|Rotation=0.000|XOffset=0mm|YOffset=0mm|HoleType=Round|Shape=RoundedRectangle|*
%AMROUNDEDRECTD12*
21,1,0.80,0.92,0,0,0.0*
21,1,0.72,1.00,0,0,0.0*
1,1,0.08,0.36,-0.46*
1,1,0.08,-0.36,-0.46*
1,1,0.08,-0.36,0.46*
1,1,0.08,0.36,0.46*
%
%ADD12ROUNDEDRECTD12*%
G04:AMPARAMS|DCode=13|XSize=0.8mm|YSize=1mm|CornerRadius=0.04mm|HoleSize=0mm|Usage=FLASHONLY|Rotation=90.000|XOffset=0mm|YOffset=0mm|HoleType=Round|Shape=RoundedRectangle|*
%AMROUNDEDRECTD13*
21,1,0.80,0.92,0,0,90.0*
21,1,0.72,1.00,0,0,90.0*
1,1,0.08,0.46,0.36*
1,1,0.08,0.46,-0.36*
1,1,0.08,-0.46,-0.36*
1,1,0.08,-0.46,0.36*
%
%ADD13ROUNDEDRECTD13*%
%ADD14C,1.00*%
%ADD15R,1.60X1.05*%
%ADD16R,0.70X0.90*%
%ADD17R,1.05X1.60*%
G04:AMPARAMS|DCode=18|XSize=0.25mm|YSize=0.9mm|CornerRadius=0.06mm|HoleSize=0mm|Usage=FLASHONLY|Rotation=0.000|XOffset=0mm|YOffset=0mm|HoleType=Round|Shape=RoundedRectangle|*
%AMROUNDEDRECTD18*
21,1,0.25,0.78,0,0,0.0*
21,1,0.13,0.90,0,0,0.0*
1,1,0.13,0.06,-0.39*
1,1,0.13,-0.06,-0.39*
1,1,0.13,-0.06,0.39*
1,1,0.13,0.06,0.39*
%
%ADD18ROUNDEDRECTD18*%
G04:AMPARAMS|DCode=19|XSize=0.25mm|YSize=0.9mm|CornerRadius=0.06mm|HoleSize=0mm|Usage=FLASHONLY|Rotation=90.000|XOffset=0mm|YOffset=0mm|HoleType=Round|Shape=RoundedRectangle|*
%AMROUNDEDRECTD19*
21,1,0.25,0.78,0,0,90.0*
21,1,0.13,0.90,0,0,90.0*
1,1,0.13,0.39,0.06*
1,1,0.13,0.39,-0.06*
1,1,0.13,-0.39,-0.06*
1,1,0.13,-0.39,0.06*
%
%ADD19ROUNDEDRECTD19*%
G04:AMPARAMS|DCode=20|XSize=2.1mm|YSize=2.1mm|CornerRadius=0.32mm|HoleSize=0mm|Usage=FLASHONLY|Rotation=0.000|XOffset=0mm|YOffset=0mm|HoleType=Round|Shape=RoundedRectangle|*
%AMROUNDEDRECTD20*
21,1,2.10,1.47,0,0,0.0*
21,1,1.47,2.10,0,0,0.0*
1,1,0.63,0.73,-0.73*
1,1,0.63,-0.73,-0.73*
1,1,0.63,-0.73,0.73*
1,1,0.63,0.73,0.73*
%
%ADD20ROUNDEDRECTD20*%
%ADD21R,1.22X0.62*%
G04:AMPARAMS|DCode=22|XSize=1.35mm|YSize=0.4mm|CornerRadius=0.06mm|HoleSize=0mm|Usage=FLASHONLY|Rotation=270.000|XOffset=0mm|YOffset=0mm|HoleType=Round|Shape=RoundedRectangle|*
%AMROUNDEDRECTD22*
21,1,1.35,0.28,0,0,270.0*
21,1,1.23,0.40,0,0,270.0*
1,1,0.12,-0.14,-0.61*
1,1,0.12,-0.14,0.61*
1,1,0.12,0.14,0.61*
1,1,0.12,0.14,-0.61*
%
%ADD22ROUNDEDRECTD22*%
%ADD24C,0.30*%
%ADD25C,0.20*%
%ADD27C,0.10*%
%ADD28C,3.00*%
%ADD29C,0.50*%
G04:AMPARAMS|DCode=30|XSize=3mm|YSize=1.4mm|CornerRadius=0.21mm|HoleSize=0mm|Usage=FLASHONLY|Rotation=0.000|XOffset=0mm|YOffset=0mm|HoleType=Round|Shape=RoundedRectangle|*
%AMROUNDEDRECTD30*
21,1,3.00,0.98,0,0,0.0*
21,1,2.58,1.40,0,0,0.0*
1,1,0.42,1.29,-0.49*
1,1,0.42,-1.29,-0.49*
1,1,0.42,-1.29,0.49*
1,1,0.42,1.29,0.49*
%
%ADD30ROUNDEDRECTD30*%
G54D10*
X1685Y380D02*
D03*
X1590D02*
D03*
X1543Y580D02*
D03*
X1638D02*
D03*
X1348Y1300D02*
D03*
X1252D02*
D03*
X888Y730D02*
D03*
X793D02*
D03*
Y830D02*
D03*
X888D02*
D03*
X998Y620D02*
D03*
X902D02*
D03*
X998Y520D02*
D03*
X902D02*
D03*
X2258Y1260D02*
D03*
X2162D02*
D03*
X2052Y420D02*
D03*
X2148D02*
D03*
X1127Y1180D02*
D03*
X1032D02*
D03*
X1667Y980D02*
D03*
X1573D02*
D03*
X1912Y1280D02*
D03*
X2008D02*
D03*
X1667Y880D02*
D03*
X1573D02*
D03*
X478Y680D02*
D03*
X383D02*
D03*
X1667Y780D02*
D03*
X1573D02*
D03*
X1667Y680D02*
D03*
X1573D02*
D03*
X2758Y990D02*
D03*
X2662D02*
D03*
X2758Y1100D02*
D03*
X2662D02*
D03*
X893Y420D02*
D03*
X988D02*
D03*
X1677Y280D02*
D03*
X1582D02*
D03*
X1833Y360D02*
D03*
X1927D02*
D03*
X1698Y1100D02*
D03*
X1602D02*
D03*
X1012Y1300D02*
D03*
X1107D02*
D03*
X2612Y480D02*
D03*
X2708D02*
D03*
X1543D02*
D03*
X1638D02*
D03*
X1477Y310D02*
D03*
X1382D02*
D03*
G54D11*
X510Y148D02*
D03*
Y52D02*
D03*
X1430Y507D02*
D03*
Y412D02*
D03*
X400Y457D02*
D03*
Y362D02*
D03*
X1510Y1188D02*
D03*
Y1093D02*
D03*
X1250Y1188D02*
D03*
Y1093D02*
D03*
X1410Y1188D02*
D03*
Y1093D02*
D03*
X1120Y468D02*
D03*
Y372D02*
D03*
X2480Y52D02*
D03*
Y148D02*
D03*
X2260Y333D02*
D03*
Y428D02*
D03*
X2480Y253D02*
D03*
Y347D02*
D03*
X2380Y253D02*
D03*
Y347D02*
D03*
X1630Y82D02*
D03*
Y177D02*
D03*
X2360Y148D02*
D03*
Y52D02*
D03*
X2200D02*
D03*
Y148D02*
D03*
X2500Y445D02*
D03*
Y540D02*
D03*
X740Y158D02*
D03*
Y62D02*
D03*
G54D12*
X1245Y105D02*
D03*
X1355D02*
D03*
X505Y560D02*
D03*
X395D02*
D03*
G54D13*
X400Y155D02*
D03*
Y265D02*
D03*
X628Y65D02*
D03*
Y175D02*
D03*
X1240Y365D02*
D03*
Y475D02*
D03*
X1470Y215D02*
D03*
Y105D02*
D03*
G54D14*
X2840Y1750D02*
D03*
X0Y-400D02*
D03*
G54D15*
X580Y975D02*
D03*
Y1265D02*
D03*
X820Y975D02*
D03*
Y1265D02*
D03*
G54D16*
X480Y830D02*
D03*
X640D02*
D03*
X1270Y240D02*
D03*
X1110D02*
D03*
X1800Y1280D02*
D03*
X1640D02*
D03*
X80Y880D02*
D03*
X240D02*
D03*
G54D17*
X95Y1060D02*
D03*
X385D02*
D03*
G54D18*
X1160Y993D02*
D03*
X1210D02*
D03*
X1260D02*
D03*
X1310D02*
D03*
X1360D02*
D03*
Y607D02*
D03*
X1310D02*
D03*
X1260D02*
D03*
X1210D02*
D03*
X1160D02*
D03*
G54D19*
X1452Y900D02*
D03*
Y850D02*
D03*
Y800D02*
D03*
Y750D02*
D03*
Y700D02*
D03*
X1068D02*
D03*
Y750D02*
D03*
Y800D02*
D03*
Y850D02*
D03*
Y900D02*
D03*
G54D20*
X1260Y800D02*
D03*
G54D21*
X1793Y255D02*
D03*
X2047Y160D02*
D03*
X1793Y65D02*
D03*
X2047Y255D02*
D03*
Y65D02*
D03*
G54D22*
X2412Y1127D02*
D03*
X2348D02*
D03*
X2283D02*
D03*
X2217D02*
D03*
X2152D02*
D03*
X2088D02*
D03*
X2023D02*
D03*
X1958D02*
D03*
X1892D02*
D03*
X1827D02*
D03*
Y553D02*
D03*
X1892D02*
D03*
X1958D02*
D03*
X2023D02*
D03*
X2088D02*
D03*
X2152D02*
D03*
X2217D02*
D03*
X2283D02*
D03*
X2348D02*
D03*
X2412D02*
D03*
G54D24*
X-200Y2850D02*
X-247D01*
X-270Y2827D01*
Y2733D01*
X-247Y2710D01*
X-200D01*
X-177Y2733D01*
Y2827D01*
X-200Y2850D01*
X-130Y2803D02*
Y2733D01*
X-107Y2710D01*
X-37D01*
Y2803D01*
X33Y2827D02*
Y2803D01*
X10D01*
X57D01*
X33D01*
Y2733D01*
X57Y2710D01*
X127D02*
X173D01*
X150D01*
Y2850D01*
X127D01*
X243Y2710D02*
X290D01*
X266D01*
Y2803D01*
X243D01*
X360Y2710D02*
Y2803D01*
X430D01*
X453Y2780D01*
Y2710D01*
X570D02*
X523D01*
X500Y2733D01*
Y2780D01*
X523Y2803D01*
X570D01*
X593Y2780D01*
Y2757D01*
X500D01*
X780Y2710D02*
Y2850D01*
X826Y2803D01*
X873Y2850D01*
Y2710D01*
X1013Y2850D02*
X920D01*
Y2710D01*
X1013D01*
X920Y2780D02*
X966D01*
X1153Y2827D02*
X1130Y2850D01*
X1083D01*
X1060Y2827D01*
Y2733D01*
X1083Y2710D01*
X1130D01*
X1153Y2733D01*
X1200Y2850D02*
Y2710D01*
Y2780D01*
X1293D01*
Y2850D01*
Y2710D01*
X1573Y2850D02*
X1479D01*
Y2780D01*
X1526Y2803D01*
X1549D01*
X1573Y2780D01*
Y2733D01*
X1549Y2710D01*
X1503D01*
X1479Y2733D01*
G54D25*
X3530Y1248D02*
X3597D01*
X3563D01*
Y1148D01*
X3647D02*
X3680D01*
X3697Y1164D01*
Y1198D01*
X3680Y1214D01*
X3647D01*
X3630Y1198D01*
Y1164D01*
X3647Y1148D01*
X3730Y1114D02*
Y1214D01*
X3780D01*
X3797Y1198D01*
Y1164D01*
X3780Y1148D01*
X3730D01*
X3930D02*
X3963D01*
X3947D01*
Y1248D01*
X3930D01*
X4030Y1214D02*
X4063D01*
X4080Y1198D01*
Y1148D01*
X4030D01*
X4013Y1164D01*
X4030Y1181D01*
X4080D01*
X4113Y1214D02*
Y1164D01*
X4130Y1148D01*
X4180D01*
Y1131D01*
X4163Y1114D01*
X4146D01*
X4180Y1148D02*
Y1214D01*
X4263Y1148D02*
X4230D01*
X4213Y1164D01*
Y1198D01*
X4230Y1214D01*
X4263D01*
X4280Y1198D01*
Y1181D01*
X4213D01*
X4313Y1214D02*
Y1148D01*
Y1181D01*
X4330Y1198D01*
X4346Y1214D01*
X4363D01*
X4613Y1148D02*
Y1164D01*
X4630D01*
Y1148D01*
X4613D01*
X4763Y1231D02*
X4746Y1248D01*
X4713D01*
X4696Y1231D01*
Y1164D01*
X4713Y1148D01*
X4746D01*
X4763Y1164D01*
Y1198D01*
X4730D01*
X4796Y1248D02*
X4863D01*
X4830D01*
Y1148D01*
X4896Y1248D02*
Y1148D01*
X4963D01*
X3530Y946D02*
Y1046D01*
X3580D01*
X3597Y1030D01*
Y996D01*
X3580Y980D01*
X3530D01*
X3630Y946D02*
X3663D01*
X3647D01*
Y1046D01*
X3630D01*
X3730Y1013D02*
X3763D01*
X3780Y996D01*
Y946D01*
X3730D01*
X3713Y963D01*
X3730Y980D01*
X3780D01*
X3813Y946D02*
Y1013D01*
X3863D01*
X3880Y996D01*
Y946D01*
X3963D02*
X3930D01*
X3913Y963D01*
Y996D01*
X3930Y1013D01*
X3963D01*
X3980Y996D01*
Y980D01*
X3913D01*
X4113Y946D02*
X4146D01*
X4130D01*
Y1046D01*
X4113Y1030D01*
X4396Y946D02*
Y963D01*
X4413D01*
Y946D01*
X4396D01*
X4546Y1030D02*
X4530Y1046D01*
X4496D01*
X4480Y1030D01*
Y963D01*
X4496Y946D01*
X4530D01*
X4546Y963D01*
Y996D01*
X4513D01*
X4580Y946D02*
Y1046D01*
X4630D01*
X4646Y1030D01*
Y996D01*
X4630Y980D01*
X4580D01*
X4680Y946D02*
X4713D01*
X4696D01*
Y1046D01*
X4680Y1030D01*
X3530Y778D02*
Y878D01*
X3563Y845D01*
X3597Y878D01*
Y778D01*
X3630D02*
X3663D01*
X3647D01*
Y845D01*
X3630D01*
X3780Y878D02*
Y778D01*
X3730D01*
X3713Y795D01*
Y828D01*
X3730Y845D01*
X3780D01*
X3913Y878D02*
Y778D01*
X3980D01*
X4030Y845D02*
X4063D01*
X4080Y828D01*
Y778D01*
X4030D01*
X4013Y795D01*
X4030Y812D01*
X4080D01*
X4113Y845D02*
Y795D01*
X4130Y778D01*
X4180D01*
Y762D01*
X4163Y745D01*
X4146D01*
X4180Y778D02*
Y845D01*
X4263Y778D02*
X4230D01*
X4213Y795D01*
Y828D01*
X4230Y845D01*
X4263D01*
X4280Y828D01*
Y812D01*
X4213D01*
X4313Y845D02*
Y778D01*
Y812D01*
X4330Y828D01*
X4346Y845D01*
X4363D01*
X4513Y878D02*
Y778D01*
X4580D01*
X4680D02*
X4613D01*
X4680Y845D01*
Y862D01*
X4663Y878D01*
X4630D01*
X4613Y862D01*
X4913Y778D02*
Y795D01*
X4930D01*
Y778D01*
X4913D01*
X5063Y862D02*
X5046Y878D01*
X5013D01*
X4996Y862D01*
Y795D01*
X5013Y778D01*
X5046D01*
X5063Y795D01*
Y828D01*
X5030D01*
X5096Y778D02*
X5129D01*
X5113D01*
Y878D01*
X5096Y862D01*
X3530Y677D02*
Y577D01*
X3580D01*
X3597Y594D01*
Y611D01*
X3580Y627D01*
X3530D01*
X3580D01*
X3597Y644D01*
Y661D01*
X3580Y677D01*
X3530D01*
X3647Y577D02*
X3680D01*
X3697Y594D01*
Y627D01*
X3680Y644D01*
X3647D01*
X3630Y627D01*
Y594D01*
X3647Y577D01*
X3747Y661D02*
Y644D01*
X3730D01*
X3763D01*
X3747D01*
Y594D01*
X3763Y577D01*
X3830Y661D02*
Y644D01*
X3813D01*
X3847D01*
X3830D01*
Y594D01*
X3847Y577D01*
X3913D02*
X3947D01*
X3963Y594D01*
Y627D01*
X3947Y644D01*
X3913D01*
X3897Y627D01*
Y594D01*
X3913Y577D01*
X3997D02*
Y644D01*
X4013D01*
X4030Y627D01*
Y577D01*
Y627D01*
X4047Y644D01*
X4063Y627D01*
Y577D01*
X4196Y677D02*
Y577D01*
X4263D01*
X4313Y644D02*
X4346D01*
X4363Y627D01*
Y577D01*
X4313D01*
X4296Y594D01*
X4313Y611D01*
X4363D01*
X4396Y644D02*
Y594D01*
X4413Y577D01*
X4463D01*
Y561D01*
X4446Y544D01*
X4430D01*
X4463Y577D02*
Y644D01*
X4546Y577D02*
X4513D01*
X4496Y594D01*
Y627D01*
X4513Y644D01*
X4546D01*
X4563Y627D01*
Y611D01*
X4496D01*
X4596Y644D02*
Y577D01*
Y611D01*
X4613Y627D01*
X4630Y644D01*
X4646D01*
X4796Y577D02*
Y594D01*
X4813D01*
Y577D01*
X4796D01*
X4946Y661D02*
X4930Y677D01*
X4896D01*
X4880Y661D01*
Y594D01*
X4896Y577D01*
X4930D01*
X4946Y594D01*
Y627D01*
X4913D01*
X4980Y677D02*
Y577D01*
X5030D01*
X5046Y594D01*
Y611D01*
X5030Y627D01*
X4980D01*
X5030D01*
X5046Y644D01*
Y661D01*
X5030Y677D01*
X4980D01*
X5080D02*
Y577D01*
X5146D01*
X3580Y308D02*
X3547D01*
X3530Y291D01*
Y225D01*
X3547Y208D01*
X3580D01*
X3597Y225D01*
Y291D01*
X3580Y308D01*
X3630Y275D02*
Y225D01*
X3647Y208D01*
X3697D01*
Y275D01*
X3747Y291D02*
Y275D01*
X3730D01*
X3763D01*
X3747D01*
Y225D01*
X3763Y208D01*
X3813D02*
X3847D01*
X3830D01*
Y308D01*
X3813D01*
X3897Y208D02*
X3930D01*
X3913D01*
Y275D01*
X3897D01*
X3980Y208D02*
Y275D01*
X4030D01*
X4047Y258D01*
Y208D01*
X4130D02*
X4096D01*
X4080Y225D01*
Y258D01*
X4096Y275D01*
X4130D01*
X4146Y258D01*
Y241D01*
X4080D01*
X4280Y208D02*
Y225D01*
X4296D01*
Y208D01*
X4280D01*
X4430Y291D02*
X4413Y308D01*
X4380D01*
X4363Y291D01*
Y225D01*
X4380Y208D01*
X4413D01*
X4430Y225D01*
Y258D01*
X4396D01*
X4463Y208D02*
Y308D01*
X4496Y275D01*
X4530Y308D01*
Y208D01*
X4630Y308D02*
X4563D01*
Y258D01*
X4596Y275D01*
X4613D01*
X4630Y258D01*
Y225D01*
X4613Y208D01*
X4580D01*
X4563Y225D01*
X3530Y140D02*
X3597D01*
X3563D01*
Y40D01*
X3647Y107D02*
X3680D01*
X3697Y90D01*
Y40D01*
X3647D01*
X3630Y57D01*
X3647Y73D01*
X3697D01*
X3730Y140D02*
Y40D01*
X3780D01*
X3797Y57D01*
Y73D01*
Y90D01*
X3780Y107D01*
X3730D01*
X3930Y40D02*
Y57D01*
X3947D01*
Y40D01*
X3930D01*
X4080Y123D02*
X4063Y140D01*
X4030D01*
X4013Y123D01*
Y57D01*
X4030Y40D01*
X4063D01*
X4080Y57D01*
Y90D01*
X4047D01*
X4113Y40D02*
Y140D01*
X4146Y107D01*
X4180Y140D01*
Y40D01*
X4280Y140D02*
X4246Y123D01*
X4213Y90D01*
Y57D01*
X4230Y40D01*
X4263D01*
X4280Y57D01*
Y73D01*
X4263Y90D01*
X4213D01*
X-270Y3010D02*
Y2910D01*
Y2960D01*
X-203D01*
Y3010D01*
Y2910D01*
X-170D02*
X-137D01*
X-153D01*
Y3010D01*
X-170Y2993D01*
X-87D02*
X-70Y3010D01*
X-37D01*
X-20Y2993D01*
Y2977D01*
X-37Y2960D01*
X-20Y2943D01*
Y2927D01*
X-37Y2910D01*
X-70D01*
X-87Y2927D01*
Y2943D01*
X-70Y2960D01*
X-87Y2977D01*
Y2993D01*
X-70Y2960D02*
X-37D01*
X13D02*
X80D01*
X113Y2993D02*
X130Y3010D01*
X163D01*
X180Y2993D01*
Y2927D01*
X163Y2910D01*
X130D01*
X113Y2927D01*
Y2993D01*
X213D02*
X230Y3010D01*
X263D01*
X280Y2993D01*
Y2927D01*
X263Y2910D01*
X230D01*
X213Y2927D01*
Y2993D01*
X380Y2910D02*
X313D01*
X380Y2977D01*
Y2993D01*
X363Y3010D01*
X330D01*
X313Y2993D01*
X413Y2960D02*
X480D01*
X513Y2910D02*
X546D01*
X530D01*
Y3010D01*
X513Y2993D01*
X596Y2910D02*
Y2927D01*
X613D01*
Y2910D01*
X596D01*
X680D02*
Y3010D01*
X730D01*
X746Y2993D01*
Y2960D01*
X730Y2943D01*
X680D01*
X846Y2993D02*
X830Y3010D01*
X796D01*
X780Y2993D01*
Y2927D01*
X796Y2910D01*
X830D01*
X846Y2927D01*
X880Y3010D02*
Y2910D01*
X930D01*
X946Y2927D01*
Y2943D01*
X930Y2960D01*
X880D01*
X930D01*
X946Y2977D01*
Y2993D01*
X930Y3010D01*
X880D01*
X980D02*
Y2910D01*
X1030D01*
X1046Y2927D01*
Y2993D01*
X1030Y3010D01*
X980D01*
X1130D02*
X1096D01*
X1080Y2993D01*
Y2927D01*
X1096Y2910D01*
X1130D01*
X1146Y2927D01*
Y2993D01*
X1130Y3010D01*
X1246Y2993D02*
X1230Y3010D01*
X1196D01*
X1180Y2993D01*
Y2927D01*
X1196Y2910D01*
X1230D01*
X1246Y2927D01*
G54D27*
X610Y-1000D02*
X3300D01*
X-390D02*
X610D01*
X-390D02*
Y2100D01*
X3300Y-1000D02*
Y2400D01*
X-390D02*
X3300D01*
X-390Y2100D02*
Y2400D01*
G54D28*
X1500Y-600D02*
D03*
Y2000D02*
D03*
G54D29*
X-20Y340D02*
D03*
Y440D02*
D03*
Y540D02*
D03*
Y740D02*
D03*
Y640D02*
D03*
X2920Y330D02*
D03*
Y430D02*
D03*
Y530D02*
D03*
Y730D02*
D03*
Y630D02*
D03*
G54D30*
X180Y120D02*
D03*
X2720Y840D02*
D03*
Y320D02*
D03*
X180Y310D02*
D03*
X2720Y120D02*
D03*
Y620D02*
D03*
X180Y720D02*
D03*
Y1240D02*
D03*
Y520D02*
D03*
X2720Y1240D02*
D03*
M02*
