G04 Layer_Color=8388736*
%FSLAX42Y42*%
%MOMM*%
G71*
G01*
G75*
%ADD24C,0.30*%
%ADD26C,0.20*%
%ADD27C,0.10*%
%ADD67C,2.00*%
G54D24*
X-280Y2630D02*
X-187D01*
X-233D01*
Y2490D01*
X-117Y2583D02*
X-70D01*
X-47Y2560D01*
Y2490D01*
X-117D01*
X-140Y2513D01*
X-117Y2537D01*
X-47D01*
X-0Y2630D02*
Y2490D01*
X70D01*
X93Y2513D01*
Y2537D01*
Y2560D01*
X70Y2583D01*
X-0D01*
X280D02*
Y2490D01*
Y2537D01*
X303Y2560D01*
X326Y2583D01*
X350D01*
X443Y2490D02*
X490D01*
X513Y2513D01*
Y2560D01*
X490Y2583D01*
X443D01*
X420Y2560D01*
Y2513D01*
X443Y2490D01*
X560Y2583D02*
Y2513D01*
X583Y2490D01*
X653D01*
Y2583D01*
X723Y2607D02*
Y2583D01*
X700D01*
X746D01*
X723D01*
Y2513D01*
X746Y2490D01*
X886D02*
X840D01*
X816Y2513D01*
Y2560D01*
X840Y2583D01*
X886D01*
X910Y2560D01*
Y2537D01*
X816D01*
X1096Y2490D02*
Y2630D01*
X1143Y2583D01*
X1190Y2630D01*
Y2490D01*
X1329Y2630D02*
X1236D01*
Y2490D01*
X1329D01*
X1236Y2560D02*
X1283D01*
X1469Y2607D02*
X1446Y2630D01*
X1399D01*
X1376Y2607D01*
Y2513D01*
X1399Y2490D01*
X1446D01*
X1469Y2513D01*
X1516Y2630D02*
Y2490D01*
Y2560D01*
X1609D01*
Y2630D01*
Y2490D01*
X1889Y2630D02*
X1843Y2607D01*
X1796Y2560D01*
Y2513D01*
X1819Y2490D01*
X1866D01*
X1889Y2513D01*
Y2537D01*
X1866Y2560D01*
X1796D01*
X-200Y2850D02*
X-247D01*
X-270Y2827D01*
Y2733D01*
X-247Y2710D01*
X-200D01*
X-177Y2733D01*
Y2827D01*
X-200Y2850D01*
X-130Y2803D02*
Y2733D01*
X-107Y2710D01*
X-37D01*
Y2803D01*
X33Y2827D02*
Y2803D01*
X10D01*
X57D01*
X33D01*
Y2733D01*
X57Y2710D01*
X127D02*
X173D01*
X150D01*
Y2850D01*
X127D01*
X243Y2710D02*
X290D01*
X266D01*
Y2803D01*
X243D01*
X360Y2710D02*
Y2803D01*
X430D01*
X453Y2780D01*
Y2710D01*
X570D02*
X523D01*
X500Y2733D01*
Y2780D01*
X523Y2803D01*
X570D01*
X593Y2780D01*
Y2757D01*
X500D01*
X780Y2710D02*
Y2850D01*
X826Y2803D01*
X873Y2850D01*
Y2710D01*
X1013Y2850D02*
X920D01*
Y2710D01*
X1013D01*
X920Y2780D02*
X966D01*
X1153Y2827D02*
X1130Y2850D01*
X1083D01*
X1060Y2827D01*
Y2733D01*
X1083Y2710D01*
X1130D01*
X1153Y2733D01*
X1200Y2850D02*
Y2710D01*
Y2780D01*
X1293D01*
Y2850D01*
Y2710D01*
X1573Y2850D02*
X1479D01*
Y2780D01*
X1526Y2803D01*
X1549D01*
X1573Y2780D01*
Y2733D01*
X1549Y2710D01*
X1503D01*
X1479Y2733D01*
G54D26*
X-270Y3010D02*
Y2910D01*
Y2960D01*
X-203D01*
Y3010D01*
Y2910D01*
X-170D02*
X-137D01*
X-153D01*
Y3010D01*
X-170Y2993D01*
X-87D02*
X-70Y3010D01*
X-37D01*
X-20Y2993D01*
Y2977D01*
X-37Y2960D01*
X-20Y2943D01*
Y2927D01*
X-37Y2910D01*
X-70D01*
X-87Y2927D01*
Y2943D01*
X-70Y2960D01*
X-87Y2977D01*
Y2993D01*
X-70Y2960D02*
X-37D01*
X13D02*
X80D01*
X113Y2993D02*
X130Y3010D01*
X163D01*
X180Y2993D01*
Y2927D01*
X163Y2910D01*
X130D01*
X113Y2927D01*
Y2993D01*
X213D02*
X230Y3010D01*
X263D01*
X280Y2993D01*
Y2927D01*
X263Y2910D01*
X230D01*
X213Y2927D01*
Y2993D01*
X380Y2910D02*
X313D01*
X380Y2977D01*
Y2993D01*
X363Y3010D01*
X330D01*
X313Y2993D01*
X413Y2910D02*
Y2927D01*
X430D01*
Y2910D01*
X413D01*
X496D02*
Y3010D01*
X546D01*
X563Y2993D01*
Y2960D01*
X546Y2943D01*
X496D01*
X663Y2993D02*
X646Y3010D01*
X613D01*
X596Y2993D01*
Y2927D01*
X613Y2910D01*
X646D01*
X663Y2927D01*
X696Y3010D02*
Y2910D01*
X746D01*
X763Y2927D01*
Y2943D01*
X746Y2960D01*
X696D01*
X746D01*
X763Y2977D01*
Y2993D01*
X746Y3010D01*
X696D01*
X796D02*
Y2910D01*
X846D01*
X863Y2927D01*
Y2993D01*
X846Y3010D01*
X796D01*
X946D02*
X913D01*
X896Y2993D01*
Y2927D01*
X913Y2910D01*
X946D01*
X963Y2927D01*
Y2993D01*
X946Y3010D01*
X1063Y2993D02*
X1046Y3010D01*
X1013D01*
X996Y2993D01*
Y2927D01*
X1013Y2910D01*
X1046D01*
X1063Y2927D01*
G54D27*
X-390Y2100D02*
Y2400D01*
X3300D01*
Y-1000D02*
Y2400D01*
X-390Y-1000D02*
Y2100D01*
Y-1000D02*
X610D01*
X3300D01*
G54D67*
X-100Y1460D02*
X3000D01*
X-100Y890D02*
Y1460D01*
X3000Y880D02*
Y1460D01*
X-100Y-100D02*
Y190D01*
X3000Y-100D02*
Y190D01*
X-100Y-100D02*
X3000D01*
M02*
