G04 Layer_Color=16711935*
%FSLAX42Y42*%
%MOMM*%
G71*
G01*
G75*
%ADD24C,0.30*%
%ADD26C,0.20*%
%ADD27C,0.10*%
G04:AMPARAMS|DCode=29|XSize=3mm|YSize=1.4mm|CornerRadius=0.21mm|HoleSize=0mm|Usage=FLASHONLY|Rotation=0.000|XOffset=0mm|YOffset=0mm|HoleType=Round|Shape=RoundedRectangle|*
%AMROUNDEDRECTD29*
21,1,3.00,0.98,0,0,0.0*
21,1,2.58,1.40,0,0,0.0*
1,1,0.42,1.29,-0.49*
1,1,0.42,-1.29,-0.49*
1,1,0.42,-1.29,0.49*
1,1,0.42,1.29,0.49*
%
%ADD29ROUNDEDRECTD29*%
G04:AMPARAMS|DCode=45|XSize=0.8mm|YSize=1mm|CornerRadius=0mm|HoleSize=0mm|Usage=FLASHONLY|Rotation=270.000|XOffset=0mm|YOffset=0mm|HoleType=Round|Shape=Octagon|*
%AMOCTAGOND45*
4,1,8,0.50,0.20,0.50,-0.20,0.30,-0.40,-0.30,-0.40,-0.50,-0.20,-0.50,0.20,-0.30,0.40,0.30,0.40,0.50,0.20,0.0*
%
%ADD45OCTAGOND45*%

%ADD48R,1.36X0.76*%
%ADD49C,3.00*%
G04:AMPARAMS|DCode=50|XSize=0.94mm|YSize=1.14mm|CornerRadius=0.11mm|HoleSize=0mm|Usage=FLASHONLY|Rotation=270.000|XOffset=0mm|YOffset=0mm|HoleType=Round|Shape=RoundedRectangle|*
%AMROUNDEDRECTD50*
21,1,0.94,0.92,0,0,270.0*
21,1,0.72,1.14,0,0,270.0*
1,1,0.22,-0.46,-0.36*
1,1,0.22,-0.46,0.36*
1,1,0.22,0.46,0.36*
1,1,0.22,0.46,-0.36*
%
%ADD50ROUNDEDRECTD50*%
G04:AMPARAMS|DCode=56|XSize=0.71mm|YSize=0.79mm|CornerRadius=0.13mm|HoleSize=0mm|Usage=FLASHONLY|Rotation=0.000|XOffset=0mm|YOffset=0mm|HoleType=Round|Shape=RoundedRectangle|*
%AMROUNDEDRECTD56*
21,1,0.71,0.54,0,0,0.0*
21,1,0.46,0.79,0,0,0.0*
1,1,0.26,0.23,-0.27*
1,1,0.26,-0.23,-0.27*
1,1,0.26,-0.23,0.27*
1,1,0.26,0.23,0.27*
%
%ADD56ROUNDEDRECTD56*%
G04:AMPARAMS|DCode=57|XSize=0.71mm|YSize=0.79mm|CornerRadius=0.13mm|HoleSize=0mm|Usage=FLASHONLY|Rotation=90.000|XOffset=0mm|YOffset=0mm|HoleType=Round|Shape=RoundedRectangle|*
%AMROUNDEDRECTD57*
21,1,0.71,0.54,0,0,90.0*
21,1,0.46,0.79,0,0,90.0*
1,1,0.26,0.27,0.23*
1,1,0.26,0.27,-0.23*
1,1,0.26,-0.27,-0.23*
1,1,0.26,-0.27,0.23*
%
%ADD57ROUNDEDRECTD57*%
%ADD60C,0.64*%
%ADD61C,3.14*%
%ADD62C,0.74*%
%ADD63C,0.94*%
%ADD64R,1.04X0.84*%
%ADD65R,0.74X0.74*%
%ADD66R,0.54X0.89*%
G54D24*
X-200Y2850D02*
X-247D01*
X-270Y2827D01*
Y2733D01*
X-247Y2710D01*
X-200D01*
X-177Y2733D01*
Y2827D01*
X-200Y2850D01*
X-130Y2803D02*
Y2733D01*
X-107Y2710D01*
X-37D01*
Y2803D01*
X33Y2827D02*
Y2803D01*
X10D01*
X57D01*
X33D01*
Y2733D01*
X57Y2710D01*
X127D02*
X173D01*
X150D01*
Y2850D01*
X127D01*
X243Y2710D02*
X290D01*
X266D01*
Y2803D01*
X243D01*
X360Y2710D02*
Y2803D01*
X430D01*
X453Y2780D01*
Y2710D01*
X570D02*
X523D01*
X500Y2733D01*
Y2780D01*
X523Y2803D01*
X570D01*
X593Y2780D01*
Y2757D01*
X500D01*
X780Y2710D02*
Y2850D01*
X826Y2803D01*
X873Y2850D01*
Y2710D01*
X1013Y2850D02*
X920D01*
Y2710D01*
X1013D01*
X920Y2780D02*
X966D01*
X1153Y2827D02*
X1130Y2850D01*
X1083D01*
X1060Y2827D01*
Y2733D01*
X1083Y2710D01*
X1130D01*
X1153Y2733D01*
X1200Y2850D02*
Y2710D01*
Y2780D01*
X1293D01*
Y2850D01*
Y2710D01*
X1573Y2850D02*
X1479D01*
Y2780D01*
X1526Y2803D01*
X1549D01*
X1573Y2780D01*
Y2733D01*
X1549Y2710D01*
X1503D01*
X1479Y2733D01*
G54D26*
X-270Y3010D02*
Y2910D01*
Y2960D01*
X-203D01*
Y3010D01*
Y2910D01*
X-170D02*
X-137D01*
X-153D01*
Y3010D01*
X-170Y2993D01*
X-87D02*
X-70Y3010D01*
X-37D01*
X-20Y2993D01*
Y2977D01*
X-37Y2960D01*
X-20Y2943D01*
Y2927D01*
X-37Y2910D01*
X-70D01*
X-87Y2927D01*
Y2943D01*
X-70Y2960D01*
X-87Y2977D01*
Y2993D01*
X-70Y2960D02*
X-37D01*
X13D02*
X80D01*
X113Y2993D02*
X130Y3010D01*
X163D01*
X180Y2993D01*
Y2927D01*
X163Y2910D01*
X130D01*
X113Y2927D01*
Y2993D01*
X213D02*
X230Y3010D01*
X263D01*
X280Y2993D01*
Y2927D01*
X263Y2910D01*
X230D01*
X213Y2927D01*
Y2993D01*
X380Y2910D02*
X313D01*
X380Y2977D01*
Y2993D01*
X363Y3010D01*
X330D01*
X313Y2993D01*
X413Y2910D02*
Y2927D01*
X430D01*
Y2910D01*
X413D01*
X496D02*
Y3010D01*
X546D01*
X563Y2993D01*
Y2960D01*
X546Y2943D01*
X496D01*
X663Y2993D02*
X646Y3010D01*
X613D01*
X596Y2993D01*
Y2927D01*
X613Y2910D01*
X646D01*
X663Y2927D01*
X696Y3010D02*
Y2910D01*
X746D01*
X763Y2927D01*
Y2943D01*
X746Y2960D01*
X696D01*
X746D01*
X763Y2977D01*
Y2993D01*
X746Y3010D01*
X696D01*
X796D02*
Y2910D01*
X846D01*
X863Y2927D01*
Y2993D01*
X846Y3010D01*
X796D01*
X946D02*
X913D01*
X896Y2993D01*
Y2927D01*
X913Y2910D01*
X946D01*
X963Y2927D01*
Y2993D01*
X946Y3010D01*
X1063Y2993D02*
X1046Y3010D01*
X1013D01*
X996Y2993D01*
Y2927D01*
X1013Y2910D01*
X1046D01*
X1063Y2927D01*
G54D27*
X-390Y2100D02*
Y2400D01*
X3300D01*
Y-1000D02*
Y2400D01*
X-390Y-1000D02*
Y2100D01*
Y-1000D02*
X610D01*
X3300D01*
G54D29*
X2720Y1240D02*
D03*
X180Y520D02*
D03*
Y1240D02*
D03*
Y720D02*
D03*
X2720Y620D02*
D03*
Y120D02*
D03*
X180Y310D02*
D03*
X2720Y320D02*
D03*
Y840D02*
D03*
X180Y120D02*
D03*
G54D45*
X2480Y860D02*
D03*
G54D48*
X553Y1005D02*
D03*
Y1195D02*
D03*
X807Y1005D02*
D03*
X553Y1100D02*
D03*
X807Y1195D02*
D03*
X2087Y255D02*
D03*
X1833Y160D02*
D03*
X2087Y65D02*
D03*
X1833Y255D02*
D03*
Y65D02*
D03*
G54D49*
X0Y-400D02*
D03*
X2840Y1750D02*
D03*
G54D50*
X2480Y805D02*
D03*
Y915D02*
D03*
G54D56*
X73Y1100D02*
D03*
X167D02*
D03*
X192Y990D02*
D03*
X288D02*
D03*
X762Y1300D02*
D03*
X857D02*
D03*
X2023Y560D02*
D03*
X2117D02*
D03*
X547Y880D02*
D03*
X453D02*
D03*
X2188Y420D02*
D03*
X2092D02*
D03*
X1352Y80D02*
D03*
X1448D02*
D03*
X732Y100D02*
D03*
X827D02*
D03*
X1348Y630D02*
D03*
X1252D02*
D03*
X1157Y228D02*
D03*
X1062D02*
D03*
X578Y560D02*
D03*
X482D02*
D03*
X1488Y720D02*
D03*
X1393D02*
D03*
X857Y210D02*
D03*
X762D02*
D03*
X1248Y100D02*
D03*
X1152D02*
D03*
X1018Y560D02*
D03*
X923D02*
D03*
X638Y100D02*
D03*
X543D02*
D03*
X1048D02*
D03*
X952D02*
D03*
X472Y450D02*
D03*
X568D02*
D03*
X668Y190D02*
D03*
X572D02*
D03*
G54D57*
X930Y1093D02*
D03*
Y1188D02*
D03*
X1040Y1202D02*
D03*
Y1298D02*
D03*
X2300Y142D02*
D03*
Y238D02*
D03*
X2200Y133D02*
D03*
Y228D02*
D03*
X2160Y818D02*
D03*
Y722D02*
D03*
X1500Y212D02*
D03*
Y308D02*
D03*
X2500Y1118D02*
D03*
Y1023D02*
D03*
X690Y638D02*
D03*
Y543D02*
D03*
X500Y672D02*
D03*
Y768D02*
D03*
G54D60*
X2920Y630D02*
D03*
Y730D02*
D03*
Y530D02*
D03*
Y430D02*
D03*
Y330D02*
D03*
X-20Y640D02*
D03*
Y740D02*
D03*
Y540D02*
D03*
Y440D02*
D03*
Y340D02*
D03*
G54D61*
X1500Y2000D02*
D03*
Y-600D02*
D03*
G54D62*
X1810Y720D02*
D03*
X2450Y1250D02*
D03*
X2350Y440D02*
D03*
X2470Y630D02*
D03*
X1740Y970D02*
D03*
X2120Y950D02*
D03*
X2260Y770D02*
D03*
Y930D02*
D03*
X390Y850D02*
D03*
G54D63*
X2260Y770D02*
D03*
Y930D02*
D03*
G54D64*
X680Y450D02*
D03*
Y320D02*
D03*
X870Y385D02*
D03*
G54D65*
X923Y638D02*
D03*
X1132D02*
D03*
X990Y722D02*
D03*
X780D02*
D03*
G54D66*
X1225Y526D02*
D03*
X1095D02*
D03*
Y335D02*
D03*
X1160D02*
D03*
X1225D02*
D03*
M02*
